<svg width="335" height="317" viewBox="0 0 335 317" fill="none" xmlns="http://www.w3.org/2000/svg">
<path d="M51.5711 299.093C52.1519 296.79 50.6303 294.49 48.9307 292.83C47.2312 291.171 45.2011 289.687 44.3091 287.486C42.8638 283.92 44.7534 279.281 42.3044 276.312C40.8638 274.565 38.2958 273.993 37.0157 272.126C36.3446 271.146 36.1218 269.94 35.8541 268.783C34.4858 262.883 31.4975 257.367 27.3035 252.998C27.0432 258.261 28.2335 263.588 30.7099 268.239C31.7049 270.108 32.9247 271.93 33.2626 274.02C33.812 277.415 31.9351 280.927 32.7889 284.258C33.7651 288.069 38.0662 290.598 38.2917 294.525C38.4824 297.845 35.6046 300.777 35.8394 304.094C35.9391 305.506 36.6029 306.814 37.3396 308.023C39.9318 312.278 43.7203 315.196 49.4373 315.069L56.4416 315.274L51.5711 299.093Z" fill="#F5F5F5"/>
<path d="M57.8592 315.45C57.8592 315.45 58.5276 315.602 59.7869 315.397C60.4139 315.302 61.1854 315.131 62.0592 314.812C62.9278 314.488 63.916 314.029 64.8608 313.257C65.3138 312.855 65.7668 312.362 66.0084 311.71C66.2459 311.06 66.2861 310.347 66.3262 309.615C66.3597 308.883 66.3556 308.121 66.4768 307.349C66.5905 306.577 66.8889 305.818 67.3199 305.092C68.1375 303.637 69.5005 302.256 69.9321 300.284C70.4005 298.345 70.0445 296.25 69.7073 294.147C69.37 292.049 69.0422 289.76 69.8331 287.568C70.5718 285.374 72.096 283.388 72.8501 280.914C73.6002 278.416 73.2288 275.736 73.3754 273.09C73.4416 271.76 73.6905 270.431 74.266 269.196C74.8254 267.954 75.6049 266.78 76.2111 265.471C77.4389 262.826 77.6417 259.835 77.9649 256.903C78.1221 255.425 78.2814 253.932 78.442 252.425C78.6005 250.91 78.7257 249.402 79.1947 247.942C79.6183 246.472 80.2345 245.048 80.8454 243.599C81.1445 242.869 81.461 242.139 81.645 241.33C81.7775 240.504 81.8123 239.731 81.8571 238.921C81.9267 237.315 81.8511 235.688 81.643 234.074C81.4436 232.459 81.1425 230.858 80.9599 229.24C80.9485 229.144 80.9371 229.049 80.9271 228.961L80.8889 228.638L80.6032 228.784C79.1077 229.543 77.8304 230.669 76.8515 231.987C75.8558 233.295 75.1338 234.77 74.5597 236.268C73.4068 239.284 73.004 242.44 72.4313 245.451C71.8725 248.464 71.1305 251.427 69.6022 253.937C68.8421 255.188 67.9201 256.333 67.1144 257.554C66.3108 258.766 65.6049 260.097 65.3995 261.555C65.002 264.52 66.6487 267.113 66.3242 269.738C66.2105 271.042 65.6986 272.264 65.0676 273.379C64.438 274.501 63.6966 275.543 62.9933 276.59C62.2907 277.637 61.6223 278.699 61.1318 279.831C60.6327 280.961 60.3617 282.168 60.2914 283.347C60.1342 285.71 60.4821 287.948 60.3209 290.064C60.1904 292.183 59.4577 294.108 58.6253 295.829C57.7882 297.557 56.8548 299.12 56.074 300.636C55.6812 301.392 55.3192 302.132 55.0248 302.873C54.713 303.613 54.5624 304.371 54.4226 305.091C54.2011 306.544 54.2312 307.896 54.3938 309.088C54.7123 311.485 55.6163 313.208 56.4266 314.174C56.6126 314.432 56.8274 314.614 56.9967 314.784C57.1619 314.96 57.3252 315.079 57.4584 315.172C57.7187 315.362 57.8592 315.45 57.8592 315.45C57.89 315.414 57.2811 315.096 56.4955 314.116C55.7193 313.145 54.8535 311.435 54.5658 309.064C54.4186 307.887 54.4025 306.551 54.6327 305.125C54.7765 304.419 54.9304 303.677 55.2396 302.959C55.5333 302.235 55.8993 301.5 56.2954 300.751C57.0823 299.249 58.0258 297.692 58.8816 295.954C59.7307 294.223 60.4922 292.261 60.6367 290.087C60.8087 287.926 60.4707 285.679 60.636 283.372C60.7096 282.218 60.9746 281.068 61.461 279.975C61.9401 278.878 62.5992 277.837 63.3018 276.798C64.0044 275.758 64.7545 274.712 65.4022 273.566C66.0499 272.428 66.5919 271.156 66.717 269.775C67.0388 266.979 65.4042 264.369 65.809 261.613C66.0037 260.25 66.6735 258.977 67.4664 257.786C68.2593 256.587 69.186 255.443 69.9689 254.159C71.5453 251.578 72.2994 248.557 72.8642 245.532C73.4423 242.502 73.8464 239.379 74.9786 236.426C75.542 234.958 76.2486 233.521 77.2108 232.257C78.1576 230.984 79.3801 229.911 80.8046 229.186L80.4808 229.01C80.4915 229.099 80.5028 229.195 80.5142 229.292C80.6996 230.929 81.0013 232.533 81.1981 234.13C81.4041 235.725 81.4784 237.32 81.4108 238.902C81.3694 239.683 81.3265 240.502 81.2088 241.239C81.0422 241.977 80.7317 242.705 80.4353 243.427C79.8284 244.872 79.2034 246.316 78.7718 247.819C78.2934 249.313 78.1629 250.879 78.009 252.376C77.8505 253.885 77.6932 255.378 77.5373 256.857C77.2195 259.802 77.0167 262.745 75.8344 265.298C75.2503 266.569 74.4721 267.746 73.896 269.03C73.3011 270.31 73.0422 271.716 72.9799 273.067C72.8428 275.77 73.2094 278.41 72.4921 280.808C71.7795 283.195 70.2633 285.192 69.5045 287.455C68.6915 289.743 69.0469 292.106 69.3928 294.198C69.7427 296.304 70.0947 298.355 69.6537 300.219C69.2596 302.103 67.9361 303.471 67.1017 304.967C66.6675 305.71 66.3577 306.514 66.2466 307.314C66.1281 308.112 66.1395 308.881 66.1121 309.608C66.08 310.329 66.0425 311.037 65.825 311.645C65.6089 312.252 65.1827 312.731 64.7471 313.125C63.8371 313.887 62.8669 314.356 62.0124 314.688C61.1532 315.017 60.3918 315.2 59.7722 315.309C59.1526 315.425 58.6708 315.444 58.3483 315.455C58.0265 315.444 57.8592 315.45 57.8592 315.45Z" fill="#E0E0E0"/>
<path d="M79.5172 232.825C79.5099 232.824 79.4871 232.895 79.451 233.037C79.4109 233.205 79.3613 233.412 79.2998 233.669C79.1653 234.221 79.0054 235.055 78.7471 236.096C78.4781 237.135 77.8491 238.312 77.3145 239.762C76.7578 241.201 76.1944 242.867 75.6778 244.739C75.1546 246.61 74.6929 248.686 74.2105 250.911C73.7126 253.131 73.2168 255.513 72.0077 257.762C71.4403 258.903 70.8006 260.058 70.2941 261.321C69.7749 262.583 69.4992 263.962 69.3085 265.345C68.988 268.12 68.4948 270.94 67.8471 273.825C66.4754 279.572 65.1693 285.046 63.9796 290.029C62.7605 294.996 61.6618 299.473 60.7357 303.245C59.8351 306.984 59.1031 310.022 58.5865 312.165C58.349 313.192 58.161 314.005 58.0245 314.595C57.9696 314.852 57.9254 315.061 57.8893 315.23C57.8612 315.374 57.8505 315.448 57.8578 315.45C57.8652 315.452 57.8906 315.381 57.9335 315.241C57.981 315.075 58.0398 314.87 58.1121 314.618C58.2687 314.032 58.4841 313.227 58.7565 312.207C59.3058 310.073 60.0853 307.047 61.0442 303.323C61.997 299.556 63.1272 295.088 64.3811 290.13C65.5822 285.144 66.901 279.669 68.2861 273.921C68.9345 271.04 69.4323 268.168 69.7448 265.405C69.9314 264.031 70.1951 262.703 70.6929 261.478C71.1807 260.248 71.8103 259.099 72.3784 257.946C73.5975 255.653 74.0967 253.2 74.5745 250.988C75.0408 248.758 75.4831 246.688 75.9843 244.821C76.4788 242.953 77.0174 241.289 77.5487 239.849C78.0559 238.405 78.6634 237.213 78.9157 236.14C79.1519 235.073 79.281 234.248 79.3874 233.685C79.4309 233.426 79.4664 233.216 79.4945 233.045C79.5179 232.901 79.5253 232.826 79.5172 232.825Z" fill="#E0E0E0"/>
<path d="M59.0954 315.465C63.6541 312.72 64.9201 304.46 62.9836 299.503C61.0472 294.546 57.6815 290.027 57.1369 284.733C56.718 280.664 58.0275 276.478 57.0566 272.504C55.7464 267.141 50.4798 263.012 50.5092 257.491C50.5253 254.394 52.271 251.47 52.1131 248.376C51.9197 244.581 48.989 241.587 47.1657 238.254C44.3748 233.152 44.1586 227.103 43.1817 221.37C42.2048 215.638 39.9833 209.505 34.8813 206.713C34.158 211.589 32.8947 214.933 33.335 221.53C33.4929 223.9 36.2724 228.422 36.6765 233.614C36.9181 236.717 37.0907 239.826 37.2981 242.931C37.4996 245.954 37.713 249.031 38.813 251.854C39.6555 254.017 41.0011 255.979 41.6307 258.213C42.815 262.416 41.3162 266.985 42.2771 271.245C43.0914 274.854 45.6099 277.95 46.1419 281.612C46.8893 286.757 43.5872 292.125 45.3209 297.026C46.1814 299.459 48.1968 301.404 48.7802 303.917C49.2326 305.867 48.7635 307.936 49.1743 309.896C49.8361 313.052 55.8776 315.471 59.0954 315.258" fill="#E0E0E0"/>
<path d="M36.1704 211.542C36.1624 211.544 36.1704 211.637 36.1918 211.817C36.2193 212.022 36.2547 212.286 36.2996 212.618C36.4086 213.321 36.5324 214.353 36.7773 215.688C37.0409 217.03 37.7408 218.538 38.3049 220.358C38.8991 222.173 39.4913 224.267 40.0178 226.612C40.5531 228.956 41.0048 231.551 41.4792 234.344C41.969 237.116 42.4708 240.18 43.874 243.083C44.5237 244.541 45.2524 246.001 45.801 247.556C46.3638 249.107 46.6281 250.776 46.794 252.494C47.0496 255.943 47.5301 259.529 48.1958 263.141C49.6378 270.352 51.0115 277.219 52.2614 283.47C53.5769 289.696 54.7626 295.305 55.7602 300.027C56.7673 304.715 57.5842 308.518 58.157 311.182C58.4447 312.474 58.6702 313.488 58.8308 314.209C58.9078 314.535 58.9693 314.794 59.0175 314.994C59.0617 315.171 59.0884 315.261 59.0958 315.259C59.1031 315.257 59.0918 315.164 59.0623 314.985C59.0255 314.782 58.9787 314.52 58.9198 314.191C58.7793 313.465 58.5806 312.445 58.3283 311.145C57.7897 308.475 57.0202 304.662 56.0714 299.962C55.1005 295.234 53.9469 289.619 52.6669 283.385C51.4283 277.136 50.0674 270.27 48.6388 263.062C47.973 259.446 47.4959 255.912 47.2323 252.449C47.0623 250.722 46.7873 249.002 46.2059 247.413C45.6398 245.824 44.9018 244.359 44.252 242.912C42.8569 240.052 42.3558 237.061 41.8466 234.278C41.3568 231.49 40.8857 228.888 40.3283 226.539C39.7796 224.189 39.1627 222.091 38.5438 220.277C37.9523 218.45 37.2303 216.955 36.9486 215.647C36.681 214.337 36.5264 213.295 36.3892 212.601C36.3263 212.272 36.2761 212.011 36.2373 211.808C36.2005 211.632 36.1778 211.542 36.1704 211.542Z" fill="#EBEBEB"/>
<path d="M140.722 37.8777C144.629 33.3203 154.787 36.1855 161.747 39.9138C161.747 39.9138 166.537 42.1721 168.32 43.3437C168.339 43.3484 168.358 43.3524 168.377 43.3578L184.653 41.325C185.974 41.1597 187.315 41.3952 188.502 42.0008L189.835 42.6806C190.509 43.0245 190.475 43.9981 189.78 44.2952L177.799 49.4173C177.794 49.4836 177.793 49.4983 177.788 49.5645C184.158 53.7505 189.615 57.3357 189.615 57.3357C189.673 57.3752 189.733 57.414 189.792 57.4521C192.02 58.8753 194.708 59.416 197.325 58.9483L203.66 57.8154C203.981 57.7579 204.317 57.7719 204.619 57.8957C205.744 58.3581 205.962 59.8368 205.042 60.6063L197.705 66.7415C196.555 67.7023 194.955 67.9158 193.594 67.2888L190.158 65.707L172.773 57.4287L174.768 67.3276C174.841 67.7351 174.52 68.1072 174.105 68.0918L173.286 68.0617C172.164 68.0202 171.142 67.4032 170.583 66.4297L163.576 53.05L143.066 43.2842C140.333 42.0262 139.357 39.6816 140.722 37.8777Z" fill="#E0E0E0"/>
<path d="M26.7539 81.695L78.3604 80.5294C78.3604 80.5294 73.609 72.328 60.3531 73.8369C47.6927 75.2775 46.9292 70.0523 40.4642 69.5531C33.9991 69.054 28.7345 74.1199 26.7539 81.695Z" fill="#F5F5F5"/>
<path d="M268.033 109.601H316.65C316.65 109.601 312.351 101.777 299.837 102.916C287.885 104.003 287.277 99.0673 281.2 98.4598C275.122 97.8509 270.058 102.511 268.033 109.601Z" fill="#F5F5F5"/>
<path d="M56.1432 56.0837H93.2298C93.2298 56.0837 89.9505 50.1159 80.4041 50.9844C71.2874 51.8141 70.8237 48.0483 66.188 47.5846C61.5517 47.1216 57.6889 50.6752 56.1432 56.0837Z" fill="#F5F5F5"/>
<path d="M268.081 134.13H292.341C292.341 134.13 290.196 130.226 283.951 130.794C277.988 131.337 277.684 128.874 274.651 128.57C271.618 128.267 269.092 130.592 268.081 134.13Z" fill="#F5F5F5"/>
<path d="M255.95 66.977H280.21C280.21 66.977 278.065 63.0727 271.82 63.6408C265.856 64.1835 265.553 61.7204 262.52 61.4166C259.488 61.1142 256.961 63.4394 255.95 66.977Z" fill="#FAFAFA"/>
<path d="M317.454 315.504C317.454 315.6 249.914 315.678 166.618 315.678C83.2937 315.678 15.7682 315.6 15.7682 315.504C15.7682 315.408 83.2937 315.33 166.618 315.33C249.914 315.33 317.454 315.408 317.454 315.504Z" fill="#263238"/>
<path d="M271.225 197.51C271.124 196.543 270.309 195.81 269.337 195.811L255.05 195.825C253.861 195.827 252.968 196.913 253.199 198.08C253.377 198.982 254.179 199.624 255.098 199.602L269.339 199.603C270.464 199.603 271.342 198.629 271.225 197.51Z" fill="#263238"/>
<path d="M302.388 310.824C302.023 313.313 303.746 315.628 306.236 315.993C308.726 316.357 311.04 314.634 311.405 312.144C311.77 309.655 310.047 307.34 307.557 306.975C305.067 306.611 302.753 308.333 302.388 310.824Z" fill="#263238"/>
<path d="M305.952 311.509L303.171 305.768L304.628 304.841L307.323 310.834L305.952 311.509Z" fill="#455A64"/>
<path d="M280.212 240.832L262.955 195.809L259.679 197.453L276.403 242.066L280.212 240.832Z" fill="#263238"/>
<path d="M294.594 310.407L320.068 300.287C321.017 299.91 321.48 298.836 321.103 297.888L295.749 234.067C293.753 229.045 288.065 226.591 283.043 228.587L272.32 232.847C267.298 234.842 264.845 240.531 266.84 245.552L292.194 309.373C292.572 310.321 293.646 310.784 294.594 310.407Z" fill="#173E95"/>
<path d="M292.137 309.691C292.137 309.691 292.099 309.556 292.006 309.3C291.905 309.03 291.764 308.654 291.583 308.168C291.198 307.16 290.639 305.701 289.922 303.829C288.458 300.051 286.348 294.611 283.744 287.896C281.121 281.17 277.999 273.169 274.534 264.285C272.797 259.843 270.973 255.18 269.083 250.347C268.61 249.139 268.133 247.92 267.652 246.691C267.143 245.495 266.976 244.178 267.117 242.879C267.426 240.277 269.239 237.876 271.756 236.903C274.263 235.903 277.228 236.43 279.224 238.128C280.211 238.984 280.985 240.064 281.425 241.288C281.908 242.517 282.386 243.736 282.86 244.943C284.758 249.774 286.589 254.435 288.334 258.875C291.829 267.748 294.977 275.74 297.624 282.457C300.278 289.153 302.427 294.577 303.919 298.342C304.666 300.203 305.247 301.653 305.649 302.654C305.847 303.134 305.999 303.505 306.109 303.772C306.215 304.023 306.278 304.148 306.278 304.148C306.278 304.148 306.24 304.013 306.147 303.757C306.047 303.487 305.906 303.111 305.724 302.625C305.339 301.617 304.78 300.158 304.063 298.286C302.599 294.509 300.49 289.07 297.886 282.354C295.262 275.628 292.141 267.626 288.676 258.741C286.938 254.298 285.114 249.635 283.223 244.801C282.75 243.592 282.273 242.373 281.792 241.144C281.339 239.878 280.518 238.723 279.48 237.825C277.379 236.035 274.254 235.479 271.612 236.533C268.96 237.557 267.05 240.089 266.727 242.83C266.575 244.193 266.76 245.597 267.288 246.834C267.77 248.062 268.248 249.281 268.722 250.488C270.62 255.319 272.451 259.978 274.195 264.417C277.69 273.289 280.838 281.281 283.485 287.997C286.138 294.693 288.288 300.117 289.78 303.883C290.527 305.744 291.109 307.194 291.511 308.196C291.708 308.676 291.861 309.048 291.97 309.313C292.073 309.566 292.137 309.691 292.137 309.691Z" fill="#263238"/>
<path d="M290.491 264.336C290.544 264.506 293.879 263.194 297.938 261.403C301.998 259.612 305.245 258.021 305.191 257.851C305.138 257.68 301.803 258.993 297.743 260.784C293.684 262.575 290.437 264.165 290.491 264.336Z" fill="#263238"/>
<path d="M267.945 195.809L264.962 189.919C264.632 189.259 264.075 188.74 263.394 188.457L258.702 186.508L246.084 169.388L244.905 182.494L252.955 190.788C252.955 190.788 257.99 201.399 262.106 200.86C262.106 200.86 261.967 199.302 261.281 198.12C259.94 195.809 261.368 195.809 261.554 195.819L264.969 195.825L267.945 195.809Z" fill="#FFBE9D"/>
<path d="M247.338 186.753C247.721 187.324 250.843 191.548 250.843 191.548L259.679 185.119L256.468 181.983L247.338 186.753Z" fill="#173E95"/>
<path d="M261.28 198.119C261.28 198.119 263.578 199.425 263.864 200.543V201.202L261.11 200.802L261.28 198.119Z" fill="#FFBE9D"/>
<path d="M264.363 199.38C263.984 199.028 263.592 198.654 263.437 198.161C263.283 197.669 263.469 197.029 263.959 196.866C264.437 196.708 264.926 197.051 265.3 197.388C265.773 197.815 266.223 198.267 266.648 198.742C266.999 199.135 267.354 199.632 267.228 200.143C267.126 200.555 266.71 200.842 266.287 200.868C265.864 200.894 265.45 200.695 265.141 200.403C264.833 200.112 264.618 199.738 264.435 199.355" fill="#FFBE9D"/>
<path d="M266.698 199.18C266.32 198.828 265.927 198.454 265.773 197.961C265.618 197.469 265.805 196.829 266.295 196.666C266.773 196.508 267.261 196.85 267.636 197.188C268.109 197.615 268.559 198.067 268.983 198.542C269.334 198.935 269.69 199.432 269.563 199.943C269.462 200.355 269.045 200.642 268.622 200.668C268.2 200.694 267.785 200.494 267.477 200.203C267.168 199.912 266.954 199.538 266.771 199.155" fill="#FFBE9D"/>
<path d="M259.679 189.125C259.672 189.045 260.275 189.077 260.961 189.672C261.286 190.009 261.497 190.471 261.762 190.973C262.007 191.481 262.264 192.101 262.216 192.808C262.163 193.526 261.774 194.079 261.494 194.549C261.199 195.006 261.045 195.477 260.943 195.876C260.734 196.686 260.895 197.196 260.847 197.21C260.807 197.239 260.543 196.702 260.702 195.827C260.777 195.4 260.918 194.887 261.217 194.386C261.492 193.898 261.83 193.38 261.869 192.783C261.912 192.183 261.695 191.609 261.472 191.11C261.232 190.615 261.031 190.135 260.781 189.841C260.514 189.56 260.204 189.379 260.009 189.269C259.806 189.157 259.684 189.15 259.679 189.125Z" fill="#EB996E"/>
<path d="M164.453 128.736L155.077 158.72L182.667 187.545L207.955 180.972L164.453 128.736Z" fill="#F5F5F5"/>
<path d="M164.453 128.736C164.453 128.736 164.524 128.814 164.666 128.98C164.817 129.158 165.028 129.407 165.301 129.73C165.87 130.407 166.696 131.39 167.762 132.658C169.918 135.231 173.04 138.954 176.933 143.597C184.752 152.95 195.667 166.007 208.086 180.862L208.259 181.069L207.997 181.137C203.405 182.332 198.624 183.575 193.742 184.845C189.991 185.819 186.3 186.778 182.71 187.711L182.611 187.736L182.541 187.663C172.141 176.778 162.671 166.867 154.977 158.814L154.921 158.755L154.945 158.679C157.853 149.493 160.229 141.991 161.882 136.773C162.703 134.195 163.344 132.181 163.784 130.8C163.999 130.128 164.165 129.612 164.28 129.251C164.393 128.904 164.453 128.736 164.453 128.736C164.131 129.782 160.827 140.511 155.206 158.761L155.175 158.626C162.884 166.665 172.372 176.559 182.792 187.426L182.624 187.378C186.213 186.445 189.904 185.485 193.655 184.51C198.538 183.242 203.319 182 207.911 180.808L207.823 181.083C195.501 166.229 184.671 153.174 176.913 143.823C173.035 139.136 169.926 135.377 167.778 132.78C166.711 131.487 165.883 130.484 165.313 129.793C165.036 129.457 164.824 129.198 164.673 129.012C164.528 128.834 164.453 128.736 164.453 128.736Z" fill="#263238"/>
<path d="M165.311 148.515C166.624 146.25 170.045 145.576 172.119 147.174C173.845 148.504 174.638 151.035 176.713 151.702C178.214 152.185 179.863 151.481 181.415 151.759C183.232 152.085 184.581 153.734 185.106 155.504C185.631 157.273 185.489 159.162 185.342 161.002L176.365 161.127L165.311 148.515Z" fill="#E0E0E0"/>
<path d="M148.722 131.471L206.863 191.388L183.17 188.988L150.027 153.997L148.722 131.471Z" fill="#F5F5F5"/>
<path d="M148.722 131.471C148.777 132.347 149.263 140.055 150.142 153.989L150.111 153.916C158.585 162.842 170.169 175.044 183.294 188.869L183.188 188.817C189.045 189.409 195.129 190.025 201.363 190.655C203.253 190.846 205.129 191.037 206.88 191.214L206.738 191.509C174.404 158.048 150.005 132.798 148.722 131.471C150.009 132.792 174.514 157.94 206.988 191.267L207.321 191.609L206.846 191.561C205.095 191.384 203.218 191.194 201.327 191.002C195.094 190.369 189.01 189.752 183.153 189.157L183.09 189.15L183.046 189.104C169.953 175.249 158.397 163.021 149.943 154.076L149.914 154.045L149.912 154.003C149.176 140.06 148.768 132.347 148.722 131.471Z" fill="#263238"/>
<path d="M171.476 155.285C169.679 157.35 169.941 160.652 171.478 162.919C173.014 165.185 175.539 166.581 178.095 167.562C180.161 168.356 182.709 168.861 184.419 167.456" fill="#E0E0E0"/>
<path d="M168.451 152.028C168.56 152.529 167.931 152.901 167.421 152.852C166.911 152.803 166.441 152.523 165.929 152.494C164.531 152.416 163.771 154.073 162.628 154.883C161.294 155.829 159.202 155.423 158.319 154.047C157.557 152.86 157.576 151.111 156.372 150.376C155.706 149.969 154.861 150.025 154.094 150.17C153.327 150.314 152.55 150.535 151.779 150.414C151.008 150.292 150.237 149.694 150.241 148.913L149.824 148.261L148.829 131.725L168.451 152.028Z" fill="#E0E0E0"/>
<path d="M196.788 190.175C198.103 190.401 199.357 189.733 199.557 188.415C199.757 187.097 198.722 185.718 197.399 185.544C196.215 185.387 194.989 186.075 193.849 185.72C192.554 185.316 192.017 183.809 191.688 182.492C191.359 181.177 190.902 179.666 189.644 179.159C187.558 178.317 185.363 180.984 183.193 180.395C181.582 179.959 180.957 178.023 179.695 176.931C178.683 176.056 177.197 175.763 175.929 176.191C174.66 176.618 173.914 177.336 173.638 178.646L183.237 188.769L196.788 190.175Z" fill="#E0E0E0"/>
<path d="M180.892 291.441L178.503 305.214C178.503 305.214 163.703 307.411 163.013 309.913L189.55 315.504L194.153 294.198L180.892 291.441Z" fill="#173E95"/>
<g opacity="0.6">
<path d="M186.951 305.792C187.435 306.041 187.668 306.693 187.439 307.187C187.21 307.681 186.549 307.924 186.061 307.683C185.572 307.443 185.269 306.669 185.551 306.204C185.833 305.739 186.626 305.496 187.042 305.846" fill="white"/>
</g>
<path opacity="0.6" d="M189.55 315.504L190.009 313.38L164.344 308.788C164.344 308.788 163.054 309.053 163.013 309.914L189.55 315.504Z" fill="white"/>
<path d="M178.101 304.988C178.078 305.119 178.713 305.314 179.263 305.865C179.827 306.401 180.038 307.032 180.168 307.006C180.292 307.006 180.263 306.19 179.585 305.535C178.914 304.874 178.098 304.863 178.101 304.988Z" fill="#263238"/>
<path d="M175.076 305.553C175.019 305.672 175.535 306.011 175.859 306.652C176.202 307.283 176.189 307.899 176.319 307.92C176.437 307.966 176.686 307.226 176.267 306.437C175.855 305.645 175.104 305.43 175.076 305.553Z" fill="#263238"/>
<path d="M172.792 308.551C172.904 308.603 173.221 307.994 173.038 307.214C172.86 306.433 172.308 306.025 172.23 306.121C172.134 306.212 172.448 306.676 172.588 307.318C172.745 307.957 172.666 308.511 172.792 308.551Z" fill="#263238"/>
<path d="M178.994 301.91C179.023 302.039 179.656 301.986 180.378 302.19C181.104 302.379 181.622 302.745 181.713 302.648C181.808 302.571 181.352 301.973 180.498 301.745C179.647 301.51 178.952 301.794 178.994 301.91Z" fill="#263238"/>
<path opacity="0.3" d="M180.422 294.17L179.993 296.624L193.061 299.252L193.54 297.061L180.422 294.17Z" fill="black"/>
<path d="M179.528 299.14C179.515 299.194 180.01 299.381 180.858 299.413C181.281 299.428 181.789 299.396 182.339 299.279C182.614 299.22 182.899 299.14 183.188 299.035C183.327 298.982 183.488 298.933 183.655 298.807C183.827 298.702 183.981 298.375 183.859 298.13C183.766 297.897 183.545 297.758 183.354 297.714C183.16 297.666 182.993 297.672 182.841 297.677C182.531 297.687 182.233 297.726 181.955 297.787C181.4 297.911 180.926 298.116 180.56 298.333C179.824 298.773 179.512 299.214 179.551 299.248C179.601 299.303 179.986 298.96 180.711 298.622C181.073 298.453 181.523 298.295 182.037 298.203C182.295 298.159 182.567 298.131 182.85 298.129C183.147 298.114 183.386 298.163 183.433 298.303C183.449 298.357 183.448 298.376 183.372 298.446C183.295 298.508 183.166 298.559 183.028 298.611C182.761 298.715 182.497 298.798 182.242 298.865C181.73 298.998 181.255 299.06 180.853 299.087C180.048 299.139 179.54 299.069 179.528 299.14Z" fill="#263238"/>
<path d="M179.657 299.362C179.698 299.391 180.053 298.981 180.278 298.152C180.387 297.74 180.45 297.226 180.403 296.658C180.377 296.375 180.324 296.078 180.234 295.78C180.134 295.485 180.018 295.094 179.528 294.93C179.267 294.865 179.006 295.024 178.895 295.184C178.769 295.344 178.719 295.495 178.656 295.642C178.541 295.942 178.483 296.247 178.466 296.537C178.431 297.119 178.563 297.638 178.745 298.029C179.119 298.826 179.627 299.095 179.647 299.053C179.704 298.997 179.305 298.652 179.047 297.908C178.92 297.541 178.836 297.074 178.89 296.57C178.916 296.318 178.974 296.059 179.076 295.807C179.177 295.534 179.331 295.329 179.43 295.38C179.562 295.405 179.742 295.665 179.803 295.913C179.89 296.18 179.946 296.446 179.981 296.702C180.046 297.217 180.021 297.691 179.958 298.083C179.831 298.871 179.59 299.327 179.657 299.362Z" fill="#263238"/>
<path d="M268.092 292.28L262.352 284.787L262.055 284.398L252.278 291.669L261.332 301.614L261.001 311.68C255.958 312.984 255.201 315.504 255.201 315.504L265.683 315.493L275.202 297.155L268.092 292.28Z" fill="#173E95"/>
<path opacity="0.6" d="M275.201 297.155L265.682 315.493L255.201 315.504L256.38 313.928L264.903 313.45L273.688 296.118L275.201 297.155Z" fill="white"/>
<path d="M261.064 307.068C261.142 307.176 261.746 306.832 262.557 306.854C263.368 306.854 263.962 307.214 264.043 307.109C264.141 307.03 263.55 306.402 262.563 306.393C261.576 306.375 260.968 306.987 261.064 307.068Z" fill="#263238"/>
<path d="M261.232 304.572C261.337 304.646 261.803 304.027 262.639 303.863C263.473 303.691 264.142 304.082 264.211 303.973C264.246 303.926 264.126 303.75 263.831 303.59C263.542 303.43 263.064 303.308 262.548 303.412C262.031 303.515 261.639 303.813 261.434 304.072C261.224 304.334 261.181 304.542 261.232 304.572Z" fill="#263238"/>
<path d="M261.161 301.366C261.276 301.423 261.633 300.818 262.363 300.565C263.09 300.302 263.748 300.549 263.801 300.432C263.83 300.379 263.696 300.233 263.406 300.125C263.121 300.017 262.669 299.968 262.209 300.13C261.75 300.293 261.428 300.615 261.275 300.878C261.118 301.145 261.106 301.342 261.161 301.366Z" fill="#263238"/>
<path d="M258.354 298.881C258.479 298.925 258.773 298.328 259.424 297.907C260.062 297.467 260.725 297.422 260.733 297.291C260.768 297.17 259.956 296.992 259.167 297.524C258.375 298.049 258.229 298.867 258.354 298.881Z" fill="#263238"/>
<path d="M256.986 296.73C257.039 296.765 257.385 296.343 257.9 295.633C258.191 295.218 258.485 294.8 258.785 294.372C258.937 294.126 259.148 293.912 259.271 293.525C259.325 293.329 259.321 293.098 259.207 292.888C259.1 292.666 258.804 292.525 258.574 292.557C258.117 292.624 257.861 292.86 257.596 293.066C257.339 293.287 257.129 293.538 256.959 293.794C256.622 294.311 256.464 294.852 256.41 295.307C256.308 296.234 256.612 296.761 256.648 296.738C256.729 296.721 256.558 296.185 256.732 295.359C256.82 294.951 256.994 294.478 257.311 294.033C257.47 293.812 257.661 293.599 257.885 293.412C258.106 293.233 258.393 293.037 258.608 293.017C258.712 293.013 258.762 293.04 258.806 293.112C258.85 293.189 258.863 293.302 258.834 293.409C258.777 293.633 258.576 293.892 258.43 294.139C258.158 294.585 257.891 295.022 257.627 295.454C257.182 296.21 256.933 296.695 256.986 296.73Z" fill="#263238"/>
<path d="M256.611 297.042C256.661 297.038 256.621 296.488 256.053 295.857C255.501 295.262 254.289 294.626 252.945 295.299C252.85 295.381 252.774 295.53 252.783 295.673C252.788 295.819 252.85 295.926 252.909 296.005C253.034 296.168 253.171 296.249 253.285 296.335C253.529 296.506 253.779 296.646 254.027 296.758C254.521 296.984 255.001 297.098 255.406 297.142C256.221 297.229 256.711 297.071 256.701 297.02C256.694 296.947 256.205 296.983 255.458 296.821C255.087 296.739 254.654 296.603 254.211 296.376C253.989 296.263 253.766 296.128 253.549 295.968C253.439 295.885 253.328 295.807 253.278 295.732C253.226 295.641 253.24 295.667 253.257 295.639C253.291 295.6 253.431 295.557 253.561 295.526C253.69 295.495 253.82 295.475 253.95 295.466C254.208 295.446 254.461 295.467 254.694 295.519C255.165 295.62 255.547 295.849 255.826 296.092C256.385 296.588 256.541 297.071 256.611 297.042Z" fill="#263238"/>
<path opacity="0.6" d="M266.84 296.842C266.84 297.528 267.396 298.085 268.083 298.085C268.769 298.085 269.326 297.528 269.326 296.842C269.326 296.155 268.769 295.598 268.083 295.598C267.396 295.598 266.84 296.155 266.84 296.842Z" fill="white"/>
<path opacity="0.3" d="M253.189 292.669L255.201 294.88L263.663 286.498L262.488 284.963L253.189 292.669Z" fill="black"/>
<path d="M227.136 118.158C232.684 116.221 238.8 115.943 244.501 117.37C247.052 118.008 249.64 119.066 251.276 121.125C253.211 123.56 253.452 126.881 253.749 129.977C254.352 136.275 255.514 142.519 257.217 148.612C258.634 153.685 260.432 158.678 261.198 163.888C261.964 169.099 261.611 174.676 258.956 179.224C254.863 186.236 246.159 189.338 238.041 189.473C233.767 189.544 229.397 188.919 225.607 186.941C221.818 184.964 218.67 181.501 217.745 177.328" fill="#173E95"/>
<g opacity="0.5">
<path d="M227.136 118.158C232.684 116.221 238.8 115.943 244.501 117.37C247.052 118.008 249.64 119.066 251.276 121.125C253.211 123.56 253.452 126.881 253.749 129.977C254.352 136.275 255.514 142.519 257.217 148.612C258.634 153.685 260.432 158.678 261.198 163.888C261.964 169.099 261.611 174.676 258.956 179.224C254.863 186.236 246.159 189.338 238.041 189.473C233.767 189.544 229.397 188.919 225.607 186.941C221.818 184.964 218.67 181.501 217.745 177.328" fill="black"/>
</g>
<path d="M238.291 124.581C238.24 124.641 239.412 125.379 240.613 127.186C241.22 128.08 241.818 129.222 242.424 130.526C243.039 131.824 243.675 133.291 244.583 134.717C245.492 136.137 246.641 137.342 247.937 138.073C249.223 138.828 250.637 139.009 251.736 138.816C252.849 138.638 253.662 138.151 254.11 137.723C254.341 137.514 254.493 137.324 254.581 137.187C254.671 137.051 254.711 136.976 254.699 136.968C254.667 136.943 254.47 137.224 254.001 137.595C253.538 137.966 252.749 138.383 251.693 138.514C250.642 138.656 249.342 138.459 248.135 137.728C246.922 137.02 245.827 135.861 244.946 134.483C244.062 133.098 243.42 131.649 242.782 130.354C242.154 129.053 241.515 127.902 240.863 127.012C240.216 126.117 239.574 125.483 239.091 125.101C238.61 124.717 238.305 124.561 238.291 124.581Z" fill="#E0E0E0"/>
<path d="M250.051 187.258C250.066 187.257 250.072 187.077 250.071 186.734C250.064 186.345 250.056 185.849 250.046 185.235C250.016 183.932 249.949 182.05 249.847 179.724C249.644 175.072 249.277 168.648 248.722 161.566C248.164 154.48 247.523 148.078 246.996 143.451C246.734 141.138 246.506 139.268 246.332 137.977C246.246 137.369 246.177 136.877 246.123 136.493C246.07 136.153 246.036 135.977 246.021 135.979C246.006 135.98 246.012 136.161 246.036 136.503C246.07 136.89 246.112 137.384 246.165 137.996C246.295 139.346 246.473 141.207 246.693 143.483C247.141 148.116 247.734 154.518 248.291 161.599C248.847 168.678 249.261 175.093 249.542 179.74C249.681 182.022 249.795 183.888 249.878 185.242C249.921 185.854 249.957 186.35 249.984 186.737C250.014 187.079 250.036 187.259 250.051 187.258Z" fill="#E0E0E0"/>
<path d="M248.382 158.81C248.387 158.924 250.949 158.894 254.079 158.503C257.212 158.117 259.703 157.522 259.68 157.409C259.656 157.287 257.141 157.691 254.027 158.074C250.913 158.463 248.375 158.686 248.382 158.81Z" fill="#E0E0E0"/>
<path d="M250.453 158.748C250.398 158.736 250.233 159.193 250.103 159.966C250.039 160.353 249.985 160.813 249.965 161.337C249.96 161.601 249.966 161.906 250.108 162.213C250.25 162.527 250.575 162.786 250.975 162.794C251.177 162.798 251.4 162.701 251.524 162.543C251.657 162.385 251.705 162.194 251.717 162.032C251.741 161.7 251.658 161.425 251.598 161.176C251.469 160.669 251.303 160.228 251.141 159.87C250.812 159.154 250.507 158.77 250.46 158.798C250.404 158.83 250.611 159.262 250.857 159.983C250.979 160.343 251.108 160.777 251.212 161.267C251.262 161.514 251.321 161.768 251.297 161.994C251.276 162.224 251.159 162.363 250.977 162.363C250.525 162.352 250.344 161.823 250.362 161.339C250.36 160.84 250.381 160.382 250.405 160.001C250.457 159.237 250.514 158.761 250.453 158.748Z" fill="#E0E0E0"/>
<path d="M221.616 120.591L248.492 117.452C252.013 117.041 254.534 113.853 254.123 110.331L253.541 105.346C253.129 101.824 249.942 99.3035 246.421 99.7143L219.545 102.853C216.024 103.265 213.503 106.452 213.914 109.973L214.496 114.959C214.907 118.481 218.094 121.002 221.616 120.591Z" fill="#455A64"/>
<path d="M245.977 100.137C245.981 100.124 245.896 100.08 245.721 100.025C245.547 99.9713 245.279 99.9171 244.93 99.907C244.24 99.8843 243.182 100.101 242.177 100.862C241.198 101.598 240.062 102.646 239.406 104.189C238.724 105.702 238.5 107.556 238.644 109.432C238.754 111.331 239.441 113.102 240.454 114.408C241.462 115.728 242.785 116.555 243.966 116.937C245.152 117.33 246.185 117.347 246.868 117.255C247.212 117.216 247.473 117.152 247.647 117.099C247.82 117.045 247.908 117.01 247.905 116.995C247.896 116.958 247.527 117.052 246.854 117.088C246.185 117.127 245.192 117.063 244.067 116.649C242.945 116.246 241.714 115.437 240.771 114.168C239.824 112.909 239.182 111.228 239.075 109.401C238.935 107.57 239.141 105.799 239.771 104.348C240.366 102.885 241.432 101.852 242.36 101.107C243.294 100.352 244.271 100.106 244.932 100.076C245.602 100.046 245.968 100.177 245.977 100.137Z" fill="#263238"/>
<path d="M230.616 101.495L234.76 101.085C233.658 101.389 232.726 102.174 232.101 103.132C231.475 104.088 231.136 105.209 230.96 106.339C230.218 111.106 232.752 116.236 236.831 118.814L233.496 119.259C233.496 119.259 223.927 110.71 230.616 101.495Z" fill="#263238"/>
<path d="M225.913 110.27C228.041 110.857 230.434 110.38 232.175 109.024C233.916 107.667 234.962 105.462 234.912 103.256C234.865 101.196 233.934 99.0961 234.574 97.1369C235.014 95.792 236.141 94.7435 236.519 93.3798C237.083 91.3443 235.853 89.2868 234.677 87.5317C233.923 86.4056 233.153 85.2621 232.103 84.4062C231.051 83.5511 229.658 83.0111 228.333 83.2922" fill="#263238"/>
<path d="M206.914 83.4735C207.029 85.0285 206.002 86.4183 204.967 87.5846C203.932 88.7515 202.781 89.9673 202.557 91.5109C202.161 94.2463 204.839 96.7856 204.286 99.4935C203.99 100.945 202.802 102.11 202.59 103.577C202.385 104.994 203.145 106.382 204.087 107.462C205.029 108.541 206.176 109.441 207.009 110.607C207.887 111.835 208.37 113.292 209 114.664C209.63 116.036 210.478 117.397 211.805 118.116C213.8 119.198 216.593 118.689 218.123 120.366C219.601 121.986 221.412 122.242 223.233 123.464" fill="#263238"/>
<path d="M230.818 85.8515C230.858 84.441 229.554 83.351 228.24 82.8345C226.928 82.3179 225.468 82.1232 224.297 81.335C223.261 80.6371 222.564 79.5491 221.687 78.6598C219.535 76.4778 216.174 75.5732 213.217 76.3801C210.261 77.1864 207.825 79.6722 207.079 82.6451C206.574 84.6538 206.919 87.0292 208.502 88.3641C210.34 89.9131 213.064 89.5691 215.42 89.0874C217.774 88.6056 220.439 88.1299 222.406 89.5129C223.591 90.3467 224.271 91.7036 224.996 92.9589C225.721 94.2142 226.631 95.4962 228.001 95.9679C229.371 96.4397 231.233 95.6247 231.286 94.176" fill="#263238"/>
<path d="M225.256 86.1413C226.474 86.2731 227.389 87.3149 227.362 88.54L225.954 120.416C225.895 124.18 220.392 126.296 216.361 126.201C212.291 126.106 212.16 124.11 212.109 120.529C212.024 114.545 212.032 112.298 212.029 112.333C212.029 112.333 206.887 111.467 205.837 104.754C205.314 101.416 205.494 95.9445 205.786 91.4721C206.049 87.4467 208.727 82.5133 212.737 82.9462L225.256 86.1413Z" fill="#FFBE9D"/>
<path d="M207.058 95.3082C207.041 95.7625 207.412 96.152 207.886 96.1781C208.359 96.2048 208.758 95.8589 208.774 95.4039C208.791 94.9496 208.42 94.5595 207.947 94.5334C207.473 94.5073 207.075 94.8539 207.058 95.3082Z" fill="#263238"/>
<path d="M206.967 94.3226C207.074 94.435 207.727 93.9539 208.653 93.9586C209.578 93.9499 210.257 94.4276 210.357 94.3145C210.407 94.2644 210.298 94.0616 210.003 93.8455C209.711 93.63 209.216 93.4206 208.638 93.4219C208.061 93.4239 207.576 93.6354 207.296 93.8522C207.012 94.0696 206.915 94.2724 206.967 94.3226Z" fill="#263238"/>
<path d="M216.279 95.5457C216.262 96.0001 216.633 96.3895 217.107 96.4163C217.58 96.4423 217.979 96.0971 217.996 95.6421C218.013 95.1878 217.642 94.7977 217.169 94.7716C216.695 94.7448 216.296 95.0914 216.279 95.5457Z" fill="#263238"/>
<path d="M216.07 94.5153C216.176 94.6277 216.831 94.1466 217.756 94.1513C218.681 94.1426 219.36 94.6203 219.461 94.5073C219.51 94.4571 219.403 94.2543 219.106 94.0382C218.815 93.8228 218.319 93.6133 217.742 93.614C217.165 93.616 216.679 93.8274 216.399 94.0442C216.116 94.2624 216.018 94.4651 216.07 94.5153Z" fill="#263238"/>
<path d="M212.693 101.376C212.698 101.323 212.123 101.223 211.19 101.101C210.954 101.076 210.729 101.029 210.69 100.867C210.634 100.696 210.734 100.442 210.849 100.167C211.073 99.5946 211.307 98.9957 211.552 98.3674C212.529 95.806 213.237 93.699 213.134 93.6608C213.03 93.6227 212.154 95.6675 211.178 98.2289C210.943 98.8606 210.717 99.4628 210.504 100.039C210.414 100.307 210.259 100.612 210.379 100.967C210.443 101.144 210.616 101.272 210.768 101.314C210.919 101.36 211.052 101.363 211.169 101.37C212.107 101.423 212.69 101.429 212.693 101.376Z" fill="#263238"/>
<path d="M212.03 112.334C212.03 112.334 216.543 112.635 221.022 109.957C221.022 109.957 218.831 114.561 212.117 113.918L212.03 112.334Z" fill="#EB996E"/>
<path d="M213.08 103.609C213.414 103.169 213.998 102.929 214.578 102.992C214.98 103.037 215.385 103.231 215.628 103.559C215.872 103.887 215.922 104.351 215.699 104.663C215.448 105.014 214.926 105.094 214.485 104.968C214.043 104.841 213.663 104.549 213.302 104.258C213.203 104.178 213.101 104.094 213.039 103.984C212.976 103.874 212.964 103.73 213.041 103.639" fill="#EB996E"/>
<path d="M215.417 102.023C215.267 102.013 215.263 103.019 214.4 103.73C213.54 104.444 212.469 104.329 212.461 104.47C212.446 104.533 212.699 104.666 213.151 104.679C213.595 104.695 214.243 104.553 214.77 104.118C215.296 103.682 215.523 103.099 215.559 102.687C215.598 102.266 215.486 102.017 215.417 102.023Z" fill="#263238"/>
<path d="M215.657 92.8933C215.748 93.1449 216.673 93.0278 217.759 93.1616C218.848 93.2734 219.723 93.5932 219.868 93.3677C219.932 93.26 219.78 93.0225 219.426 92.7782C219.076 92.534 218.516 92.3018 217.864 92.2276C217.211 92.1546 216.615 92.257 216.218 92.4169C215.819 92.5762 215.618 92.7736 215.657 92.8933Z" fill="#263238"/>
<path d="M207.313 91.6427C207.476 91.8535 208.114 91.6367 208.881 91.628C209.648 91.5926 210.298 91.7726 210.448 91.5531C210.513 91.446 210.412 91.2352 210.128 91.0359C209.849 90.8365 209.381 90.6739 208.854 90.6886C208.327 90.704 207.87 90.894 207.602 91.1088C207.331 91.3236 207.242 91.5404 207.313 91.6427Z" fill="#263238"/>
<path d="M229.942 108.22C228.096 108.592 226.086 108.024 224.707 106.743C223.328 105.461 222.616 103.498 222.852 101.63C223.061 99.982 223.95 98.3052 223.378 96.7455C222.623 94.6832 219.732 94.0482 218.965 91.99C218.519 90.7936 218.919 89.3945 218.413 88.2222C217.938 87.1202 216.778 86.4852 215.649 86.077C214.52 85.6689 213.31 85.3872 212.363 84.6505C211.415 83.9138 210.824 82.5233 211.435 81.4902C216.442 82.0904 221.376 83.2888 226.099 85.0533C227.194 85.4621 228.344 85.9539 228.992 86.9275C229.677 87.9572 229.645 89.2881 229.587 90.524C229.306 96.5494 229.025 102.575 228.743 108.601" fill="#263238"/>
<path d="M233.56 113.797C233.507 113.805 233.65 113.149 233.211 112.125C232.996 111.619 232.617 111.047 232.066 110.49C231.516 109.93 230.774 109.42 229.896 108.954C229.023 108.478 228.013 108.046 226.981 107.455C225.958 106.865 224.898 106.06 224.205 104.871C223.859 104.282 223.644 103.58 223.643 102.857C223.639 102.135 223.802 101.429 223.945 100.728C224.083 100.03 224.225 99.3082 224.084 98.621C223.963 97.9271 223.483 97.3523 222.845 96.991C222.212 96.6143 221.488 96.3835 220.803 96.0616C220.126 95.7444 219.44 95.2935 219.068 94.6103C218.69 93.9392 218.591 93.1877 218.564 92.4898C218.539 91.7853 218.584 91.1074 218.575 90.4537C218.569 89.8013 218.512 89.1663 218.306 88.6023C218.104 88.0375 217.748 87.5604 217.289 87.2266C216.367 86.5474 215.275 86.3085 214.313 86.0603C213.343 85.8187 212.45 85.5303 211.781 85.0559C211.102 84.5862 210.729 83.9398 210.574 83.3925C210.416 82.8358 210.491 82.3708 210.597 82.0931C210.712 81.8134 210.829 81.7023 210.829 81.7023C210.846 81.7123 210.753 81.8401 210.664 82.1158C210.584 82.3902 210.535 82.8311 210.704 83.3537C210.871 83.8689 211.242 84.4698 211.891 84.8953C212.538 85.3323 213.403 85.5959 214.373 85.8214C215.333 86.0563 216.46 86.2771 217.462 86.9957C217.962 87.349 218.37 87.8816 218.594 88.4972C218.824 89.1121 218.885 89.7833 218.896 90.4504C218.909 91.1195 218.868 91.798 218.896 92.4785C218.925 93.1556 219.028 93.8488 219.364 94.441C219.692 95.0412 220.295 95.4413 220.951 95.7491C221.611 96.0603 222.339 96.2884 223.024 96.6933C223.363 96.8953 223.684 97.1476 223.935 97.4668C224.187 97.7846 224.346 98.1673 224.424 98.5534C224.579 99.3376 224.419 100.094 224.28 100.798C224.133 101.504 223.975 102.188 223.976 102.856C223.974 103.52 224.165 104.159 224.484 104.713C225.125 105.831 226.134 106.622 227.128 107.207C228.132 107.798 229.138 108.244 230.015 108.739C230.896 109.225 231.654 109.765 232.207 110.355C232.761 110.942 233.135 111.544 233.337 112.075C233.547 112.605 233.6 113.051 233.6 113.348C233.608 113.496 233.59 113.609 233.583 113.685C233.573 113.758 233.566 113.797 233.56 113.797Z" fill="#263238"/>
<path d="M213.999 118.401C214.002 118.413 213.889 118.446 213.669 118.499C213.559 118.53 213.421 118.553 213.256 118.569C213.091 118.594 212.901 118.61 212.684 118.608C211.83 118.629 210.53 118.403 209.235 117.524C208.598 117.083 207.958 116.484 207.494 115.685C207.009 114.891 206.775 113.918 206.599 112.927C206.413 111.938 206.256 110.882 205.729 109.961C205.206 109.034 204.233 108.416 203.358 107.625C202.448 106.846 201.865 105.722 201.714 104.6C201.551 103.474 201.801 102.337 202.334 101.447C202.851 100.558 203.461 99.8181 203.737 98.9863C204.028 98.1627 204.078 97.3289 204.022 96.5822C203.886 95.0814 203.45 93.9097 203.174 93.1101C202.884 92.3092 202.713 91.8689 202.737 91.8582C202.748 91.8535 202.805 91.9579 202.902 92.1607C202.999 92.3641 203.137 92.6658 203.3 93.0613C203.616 93.8515 204.094 95.0165 204.267 96.5608C204.34 97.3289 204.306 98.2041 204.009 99.0814C203.725 99.9733 203.099 100.749 202.614 101.605C202.117 102.454 201.898 103.497 202.052 104.552C202.204 105.606 202.727 106.625 203.593 107.368C204.429 108.131 205.449 108.772 206.024 109.791C206.59 110.795 206.737 111.888 206.915 112.871C207.082 113.861 207.297 114.787 207.744 115.54C208.172 116.304 208.773 116.887 209.377 117.324C210.604 118.194 211.854 118.453 212.687 118.473C213.53 118.496 213.993 118.361 213.999 118.401Z" fill="#263238"/>
<path d="M233.488 86.4156C233.488 86.4156 233.566 86.4932 233.599 86.6899C233.639 86.8826 233.584 87.2032 233.34 87.4962C233.104 87.7833 232.694 88.0723 232.139 88.1038C231.587 88.1172 231.017 87.8756 230.438 87.5946C229.861 87.3035 229.225 87.0466 228.481 87.0165C227.743 86.9703 226.946 87.0834 226.111 87.2319C225.276 87.3778 224.388 87.5698 223.432 87.5772C222.49 87.5899 221.428 87.3069 220.684 86.5742C219.931 85.8602 219.502 84.9522 219.102 84.1198C218.703 83.2814 218.331 82.4711 217.821 81.8174C216.828 80.4638 215.138 80.0917 213.947 80.4042C212.72 80.7134 211.981 81.5498 211.611 82.1326C211.235 82.7368 211.153 83.1382 211.12 83.1269C211.109 83.1242 211.122 83.0245 211.171 82.8385C211.223 82.6545 211.316 82.3841 211.495 82.0636C211.842 81.4414 212.578 80.532 213.886 80.166C214.529 79.992 215.288 79.978 216.042 80.2088C216.798 80.4243 217.533 80.9228 218.073 81.6193C218.623 82.3092 219.009 83.1403 219.409 83.9726C219.812 84.801 220.234 85.6702 220.922 86.3199C221.599 86.9843 222.539 87.24 223.433 87.2366C224.337 87.2346 225.213 87.0553 226.056 86.9161C226.899 86.7756 227.723 86.6679 228.501 86.7287C229.285 86.7709 229.985 87.0713 230.547 87.3738C231.114 87.6689 231.649 87.9037 232.134 87.9091C232.614 87.9017 233.009 87.6561 233.237 87.4079C233.472 87.1543 233.542 86.8773 233.528 86.6973C233.522 86.514 233.468 86.423 233.488 86.4156Z" fill="#455A64"/>
<path d="M229.731 84.4858C227.541 83.98 225.859 81.81 225.915 79.5631C225.97 77.3162 227.758 75.2326 229.97 74.8358C231.038 74.6444 232.275 74.8813 232.916 75.7565C233.53 76.5942 233.49 77.8448 234.274 78.5267C235.113 79.2567 236.4 78.9422 237.486 79.1771C239.17 79.5404 240.296 81.3858 240.105 83.0974C239.913 84.809 238.6 86.2711 237.006 86.9234C235.412 87.5765 233.591 87.5029 231.937 87.0225C230.283 86.542 228.768 85.6796 227.304 84.7716" fill="#263238"/>
<path d="M237.794 79.6347C237.829 79.6448 237.717 80.15 237.303 80.8659C236.893 81.5805 236.129 82.4731 235.052 83.1476C233.972 83.8174 232.835 84.1105 232.013 84.1633C231.187 84.2202 230.684 84.0978 230.69 84.063C230.695 84.0027 231.198 84.0355 231.984 83.9184C232.77 83.8054 233.838 83.4895 234.868 82.8519C235.894 82.2082 236.647 81.3892 237.095 80.7334C237.547 80.0777 237.739 79.612 237.794 79.6347Z" fill="#455A64"/>
<path d="M234.243 87.0546C234.156 87.1282 233.13 85.4173 231.065 84.2537C229.018 83.056 227.024 83.0332 227.044 82.9208C227.044 82.882 227.535 82.8291 228.322 82.9362C229.106 83.0406 230.181 83.3464 231.238 83.9512C232.294 84.5595 233.099 85.3336 233.585 85.9586C234.075 86.5842 234.277 87.0352 234.243 87.0546Z" fill="#173E95"/>
<path d="M185.487 159.929L174.669 157.823L176.621 160.601L171.974 162.919L168.095 161.103C168.095 161.103 168.377 161.953 169.226 163.37C170.074 164.788 171.206 165.922 171.942 165.979C173.044 166.064 173.24 166.08 171.942 165.979C171.942 165.979 172.18 167.296 173.379 168.575C174.094 169.338 175.975 170.539 178.267 169.928L185.552 167.295L185.487 159.929Z" fill="#FFBE9D"/>
<path d="M174.549 165.367C174.615 165.431 174.016 165.99 173.053 166.096C172.093 166.212 171.381 165.803 171.431 165.726C171.468 165.631 172.158 165.857 173.014 165.75C173.871 165.659 174.491 165.282 174.549 165.367Z" fill="#EB996E"/>
<path d="M175.963 167.678C176.031 167.74 175.566 168.264 174.761 168.471C173.956 168.685 173.295 168.453 173.324 168.366C173.343 168.266 173.959 168.326 174.672 168.134C175.389 167.954 175.898 167.601 175.963 167.678Z" fill="#EB996E"/>
<path d="M178.706 159.481C178.722 159.532 178.336 159.69 177.76 160.031C177.179 160.365 176.432 160.912 175.573 161.499C174.714 162.086 173.85 162.524 173.175 162.697C172.502 162.879 172.065 162.838 172.065 162.798C172.061 162.743 172.478 162.695 173.1 162.462C173.725 162.238 174.53 161.789 175.379 161.21C176.227 160.63 177.017 160.1 177.644 159.814C178.268 159.518 178.694 159.44 178.706 159.481Z" fill="#EB996E"/>
<path d="M244.495 177.932C244.495 177.932 244.866 178.164 245.787 179.806C248.62 184.857 249.764 196.965 239.086 207.767C225.285 221.73 209.128 244.569 209.128 244.569L196.441 298.204L177.277 294.054L187.153 238.304L214.235 188.071L244.495 177.932Z" fill="#263238"/>
<path d="M265.636 281.742L236.114 236.562L227.158 197.564L204.356 208.769L215.793 248.353L252.278 293.801L265.636 281.742Z" fill="#263238"/>
<path d="M196.441 298.204C196.435 298.203 196.451 298.113 196.486 297.939C196.526 297.75 196.581 297.495 196.649 297.17C196.805 296.478 197.028 295.487 197.313 294.222C197.909 291.647 198.763 287.952 199.818 283.394C201.969 274.242 204.934 261.63 208.208 247.698C208.465 246.612 208.72 245.535 208.959 244.529L208.967 244.492L208.991 244.462C217.359 233.762 224.977 224.292 230.587 217.567C233.395 214.207 235.689 211.524 237.315 209.71C238.116 208.793 238.769 208.11 239.201 207.639C239.412 207.417 239.577 207.242 239.701 207.111C239.814 206.993 239.875 206.935 239.879 206.939C239.883 206.943 239.831 207.009 239.725 207.134C239.608 207.271 239.451 207.453 239.251 207.685C238.835 208.171 238.198 208.867 237.413 209.797C235.818 211.636 233.553 214.343 230.771 217.72C225.21 224.482 217.626 233.976 209.264 244.676L209.296 244.61C209.059 245.616 208.804 246.693 208.547 247.779C205.234 261.701 202.233 274.306 200.057 283.451C198.957 287.999 198.066 291.685 197.444 294.254C197.132 295.513 196.888 296.498 196.717 297.188C196.633 297.509 196.568 297.761 196.52 297.948C196.473 298.119 196.447 298.206 196.441 298.204Z" fill="#455A64"/>
<path d="M231.061 192.194C231.07 192.214 230.908 192.311 230.597 192.449C230.286 192.587 229.82 192.753 229.224 192.892C228.043 193.175 226.298 193.283 224.488 192.757C222.678 192.23 221.264 191.202 220.42 190.329C219.993 189.892 219.688 189.502 219.5 189.218C219.311 188.935 219.226 188.766 219.245 188.753C219.295 188.717 219.714 189.342 220.591 190.151C221.459 190.958 222.844 191.914 224.586 192.422C226.328 192.929 228.01 192.865 229.176 192.65C230.35 192.44 231.038 192.137 231.061 192.194Z" fill="#455A64"/>
<path d="M247.338 180.214C235.794 186.294 217.047 189.929 211.057 187.461L210.847 165.216C210.847 165.216 202.633 151.675 202.602 146.556C202.558 139.178 211.744 122.353 211.744 122.353L225.533 118.698C228.777 118.684 231.402 119.427 233.515 120.549C238.826 123.371 241.721 129.302 241.123 135.286L237.65 157.414L247.338 180.214Z" fill="#173E95"/>
<g opacity="0.3">
<path d="M232.542 120.529C233.342 120.407 233.64 121.717 233.066 122.287C232.492 122.857 231.597 122.889 230.798 123.014C227.207 123.576 224.431 126.653 223.123 130.044C221.815 133.434 221.694 137.146 221.479 140.774C221.264 144.401 220.909 148.137 219.204 151.347C216.032 145.722 215.537 138.66 217.894 132.648C220.251 126.636 225.413 121.793 231.563 119.823" fill="black"/>
</g>
<path d="M233.515 120.549C233.515 120.549 231.531 117.277 224.874 118.698C220.426 119.647 210.711 128.978 213.421 143.977C216.132 158.976 223.398 164.282 223.398 164.282C223.398 164.282 216.713 141.325 220.426 131.305C224.138 121.287 233.515 120.549 233.515 120.549Z" fill="#263238"/>
<g opacity="0.3">
<path d="M211.1 169.971C213.849 170.856 216.486 171.959 219.349 172.342C222.211 172.725 225.205 172.579 227.863 171.449C231.537 169.886 234.267 166.535 235.673 162.797C237.078 159.059 237.271 154.96 236.898 150.983C234.384 154.085 234.689 158.685 232.554 162.059C231.218 164.171 229.042 165.608 226.808 166.728C221.942 169.166 216.541 170.092 211.1 169.971Z" fill="black"/>
</g>
<path d="M219.369 147.244C219.369 147.244 218.474 164.133 239.076 160.771L241.152 165.656C241.152 165.656 219.49 170.231 216.419 152.294L219.369 147.244Z" fill="#263238"/>
<path d="M238.144 126.248C239.943 128.814 240.411 132.086 239.672 135.131L234.541 158.104C232.336 164.568 226.054 168.491 222.15 169.017L185.553 172.874V159.235L219.523 154.188L221.116 135.586C221.256 133.083 222.491 128.586 224.082 126.649C225.861 124.485 228.598 121.539 233.065 122.288C235.808 122.746 236.967 124.568 238.144 126.248Z" fill="#173E95"/>
<path d="M239.206 136.026C239.218 136.027 239.204 136.206 239.167 136.545C239.132 136.883 239.07 137.381 238.984 138.022C238.811 139.303 238.538 141.154 238.134 143.431C237.733 145.707 237.201 148.409 236.516 151.388C236.169 152.877 235.804 154.438 235.359 156.046C234.91 157.65 234.366 159.303 233.566 160.895C232.773 162.487 231.723 163.92 230.472 165.047C229.228 166.181 227.839 167.052 226.443 167.701C223.645 169.014 220.874 169.495 218.579 169.744C216.273 169.98 214.399 169.993 213.107 170.006C212.488 170.003 211.992 170.001 211.619 169.999C211.279 169.993 211.101 169.984 211.1 169.972C211.1 169.96 211.278 169.946 211.618 169.929C211.99 169.914 212.485 169.895 213.104 169.871C214.393 169.816 216.263 169.765 218.552 169.499C220.829 169.221 223.562 168.718 226.306 167.411C227.675 166.765 229.03 165.906 230.241 164.796C231.458 163.692 232.476 162.3 233.255 160.737C234.041 159.176 234.581 157.545 235.032 155.953C235.478 154.359 235.85 152.798 236.204 151.315C236.904 148.345 237.461 145.653 237.893 143.385C238.326 141.118 238.636 139.275 238.85 138.001C238.953 137.39 239.036 136.903 239.098 136.535C239.157 136.199 239.194 136.024 239.206 136.026Z" fill="#263238"/>
<path d="M220.51 158.103C220.418 158.133 220.049 157.243 219.685 156.116C219.321 154.989 219.1 154.052 219.191 154.022C219.283 153.993 219.652 154.882 220.016 156.009C220.381 157.136 220.602 158.074 220.51 158.103Z" fill="#263238"/>
<path d="M222.59 157.58C222.537 157.655 221.627 157.085 220.723 156.128C219.814 155.176 219.292 154.238 219.369 154.189C219.453 154.133 220.09 154.962 220.975 155.888C221.856 156.82 222.651 157.5 222.59 157.58Z" fill="#263238"/>
<path d="M188.739 158.76C188.738 158.755 188.789 158.741 188.891 158.721C189.012 158.699 189.161 158.671 189.345 158.637C189.771 158.566 190.356 158.469 191.099 158.345C192.656 158.101 194.868 157.754 197.608 157.325C203.157 156.486 210.84 155.324 219.497 154.016L219.35 154.17C219.471 152.902 219.599 151.56 219.729 150.201C220.17 145.372 220.631 140.779 220.858 136.583C221.028 134.475 221.425 132.497 221.996 130.705C222.568 128.919 223.317 127.291 224.388 126.072C226.558 123.709 228.985 122.456 230.772 122.23C231.663 122.1 232.363 122.19 232.825 122.267C233.054 122.317 233.226 122.37 233.342 122.402C233.458 122.434 233.516 122.454 233.514 122.46C233.511 122.529 232.548 122.093 230.793 122.365C229.052 122.624 226.684 123.891 224.573 126.234C223.551 127.421 222.823 129.026 222.271 130.792C221.72 132.563 221.337 134.526 221.179 136.606C220.969 140.802 220.516 145.405 220.076 150.233C219.946 151.593 219.816 152.935 219.695 154.203L219.682 154.337L219.548 154.357C210.885 155.621 203.196 156.743 197.643 157.553C194.896 157.938 192.678 158.25 191.119 158.468C190.372 158.566 189.783 158.643 189.355 158.699C189.169 158.72 189.018 158.737 188.896 158.751C188.793 158.763 188.739 158.765 188.739 158.76Z" fill="#263238"/>
<path d="M209.684 169.893C209.588 169.902 209.2 166.808 208.818 162.982C208.435 159.154 208.203 156.045 208.298 156.035C208.394 156.025 208.782 159.119 209.165 162.947C209.547 166.773 209.78 169.884 209.684 169.893Z" fill="#FAFAFA"/>
<path d="M236.471 149.151C236.471 149.199 235.582 149.209 234.145 149.187C232.709 149.165 230.724 149.11 228.533 149.028C226.341 148.946 224.357 148.852 222.924 148.766C221.49 148.681 220.604 148.604 220.607 148.556C220.61 148.508 221.5 148.498 222.937 148.52C224.374 148.542 226.357 148.597 228.546 148.679C230.736 148.761 232.717 148.855 234.151 148.94C235.585 149.025 236.472 149.103 236.471 149.151Z" fill="#FAFAFA"/>
<path d="M213.242 144.804C213.245 144.85 212.666 144.935 211.725 145.003C210.785 145.072 209.481 145.117 208.041 145.09C206.601 145.061 205.299 144.964 204.362 144.858C203.424 144.753 202.85 144.646 202.854 144.6C202.86 144.55 203.442 144.571 204.381 144.613C205.319 144.656 206.615 144.713 208.047 144.742C209.479 144.77 210.776 144.763 211.715 144.757C212.656 144.751 213.238 144.753 213.242 144.804Z" fill="#FAFAFA"/>
<path d="M216.266 128.913C216.215 129.002 214.809 128.264 212.985 127.577C211.164 126.881 209.623 126.501 209.644 126.4C209.659 126.312 211.257 126.545 213.109 127.252C214.964 127.951 216.314 128.836 216.266 128.913Z" fill="#FAFAFA"/>
<path d="M242.842 170.662C242.846 170.674 242.743 170.725 242.543 170.811C242.304 170.909 242.013 171.029 241.661 171.174C240.894 171.487 239.77 171.906 238.372 172.393C235.576 173.372 231.655 174.572 227.246 175.584C222.835 176.592 218.783 177.217 215.839 177.553C214.368 177.722 213.174 177.833 212.347 177.886C211.967 177.909 211.653 177.928 211.395 177.943C211.177 177.952 211.062 177.951 211.061 177.939C211.06 177.927 211.173 177.905 211.389 177.873C211.645 177.84 211.957 177.8 212.334 177.751C213.156 177.657 214.344 177.508 215.808 177.308C218.738 176.911 222.771 176.249 227.169 175.245C231.564 174.236 235.483 173.077 238.294 172.16C239.699 171.703 240.833 171.32 241.614 171.047C241.975 170.927 242.273 170.827 242.518 170.745C242.726 170.68 242.838 170.651 242.842 170.662Z" fill="#FAFAFA"/>
<path d="M240.661 130.644C240.657 130.74 236.713 130.691 231.851 130.533C226.988 130.376 223.049 130.171 223.052 130.075C223.055 129.979 226.999 130.028 231.862 130.185C236.724 130.343 240.664 130.548 240.661 130.644Z" fill="#FAFAFA"/>
<path d="M193.512 171.878C193.416 171.882 193.223 168.893 193.081 165.203C192.939 161.512 192.903 158.517 192.999 158.514C193.095 158.511 193.288 161.499 193.43 165.19C193.572 168.88 193.609 171.875 193.512 171.878Z" fill="#FAFAFA"/>
<path d="M118.656 103.448C124.568 102.331 130.803 102.982 136.358 105.294C138.843 106.329 141.302 107.795 142.646 110.128C144.234 112.888 143.973 116.287 143.802 119.467C143.453 125.936 143.679 132.434 144.475 138.863C145.138 144.215 146.197 149.544 146.179 154.936C146.161 160.329 144.954 165.921 141.573 170.122C136.362 176.598 127.077 178.412 118.837 177.313C114.5 176.734 110.17 175.435 106.635 172.856C103.1 170.278 100.439 166.292 100.138 161.927" fill="#455A64"/>
<path d="M128.972 111.651C128.911 111.703 129.986 112.629 130.927 114.642C131.405 115.639 131.837 116.886 132.252 118.298C132.677 119.707 133.097 121.289 133.799 122.87C134.504 124.446 135.483 125.841 136.685 126.779C137.871 127.738 139.275 128.138 140.418 128.11C141.572 128.1 142.469 127.73 142.988 127.365C143.253 127.189 143.436 127.019 143.546 126.894C143.658 126.77 143.71 126.7 143.7 126.69C143.671 126.66 143.429 126.915 142.898 127.219C142.373 127.524 141.51 127.826 140.422 127.798C139.336 127.782 138.05 127.384 136.939 126.46C135.818 125.558 134.887 124.219 134.203 122.689C133.52 121.152 133.09 119.588 132.642 118.179C132.204 116.767 131.732 115.504 131.208 114.503C130.689 113.5 130.136 112.76 129.706 112.299C129.274 111.836 128.989 111.632 128.972 111.651Z" fill="#263238"/>
<path d="M131.334 176.899C131.35 176.901 131.384 176.719 131.435 176.372C131.487 175.978 131.554 175.473 131.637 174.85C131.805 173.527 132.024 171.611 132.275 169.24C132.778 164.499 133.385 157.94 133.901 150.684C134.415 143.425 134.741 136.846 134.913 132.081C134.999 129.699 135.053 127.771 135.074 126.438C135.08 125.809 135.085 125.3 135.089 124.903C135.087 124.551 135.079 124.367 135.064 124.367C135.049 124.366 135.027 124.55 135 124.9C134.974 125.297 134.942 125.805 134.902 126.432C134.828 127.819 134.725 129.73 134.601 132.068C134.349 136.826 133.975 143.399 133.461 150.653C132.945 157.904 132.387 164.463 131.965 169.21C131.758 171.542 131.589 173.448 131.467 174.832C131.417 175.458 131.378 175.966 131.347 176.362C131.324 176.713 131.319 176.897 131.334 176.899Z" fill="#263238"/>
<path d="M133.976 147.842C133.964 147.959 136.562 148.318 139.792 148.399C143.022 148.486 145.634 148.262 145.628 148.145C145.623 148.018 143.015 148.044 139.803 147.957C136.592 147.877 133.988 147.716 133.976 147.842Z" fill="#263238"/>
<path d="M136.083 148.095C136.028 148.074 135.793 148.513 135.543 149.275C135.42 149.657 135.294 150.114 135.195 150.642C135.15 150.908 135.11 151.219 135.207 151.55C135.303 151.89 135.593 152.201 135.997 152.271C136.2 152.306 136.441 152.241 136.59 152.1C136.749 151.96 136.827 151.775 136.864 151.612C136.938 151.279 136.896 150.988 136.874 150.727C136.82 150.195 136.72 149.722 136.609 149.336C136.386 148.56 136.135 148.126 136.084 148.147C136.022 148.17 136.166 148.639 136.305 149.407C136.373 149.79 136.438 150.249 136.468 150.76C136.481 151.018 136.502 151.284 136.443 151.51C136.388 151.739 136.248 151.862 136.063 151.834C135.608 151.754 135.504 151.19 135.598 150.704C135.67 150.199 135.762 149.738 135.845 149.356C136.012 148.59 136.143 148.117 136.083 148.095Z" fill="#263238"/>
<path d="M112.545 105.067L140.539 105.991C144.082 106.108 147.05 103.331 147.167 99.788L147.347 94.3454C147.464 90.8024 144.687 87.8348 141.144 87.7177L113.149 86.793C109.606 86.6759 106.638 89.4534 106.521 92.9964L106.341 98.439C106.224 101.982 109.002 104.95 112.545 105.067Z" fill="#263238"/>
<path d="M140.478 88.0717C140.484 88.0597 140.404 88.0021 140.236 87.9205C140.068 87.8395 139.805 87.7438 139.453 87.6803C138.758 87.5525 137.653 87.6107 136.52 88.2276C135.416 88.8231 134.107 89.7117 133.208 91.1744C132.286 92.6016 131.777 94.4451 131.638 96.3661C131.46 98.3052 131.885 100.203 132.712 101.68C133.532 103.17 134.746 104.209 135.883 104.774C137.025 105.354 138.068 105.527 138.772 105.538C139.126 105.551 139.401 105.526 139.585 105.498C139.769 105.47 139.863 105.448 139.862 105.433C139.858 105.393 139.471 105.433 138.783 105.366C138.1 105.304 137.105 105.087 136.029 104.498C134.954 103.918 133.83 102.912 133.069 101.484C132.301 100.066 131.908 98.2657 132.078 96.4002C132.216 94.5247 132.693 92.7629 133.553 91.3899C134.378 89.9994 135.615 89.1149 136.667 88.5026C137.728 87.881 138.755 87.7813 139.429 87.8502C140.112 87.9231 140.462 88.1118 140.478 88.0717Z" fill="#455A64"/>
<path d="M124.718 87.1075L128.977 87.3236C127.814 87.4641 126.751 88.1165 125.972 88.9904C125.193 89.8643 124.68 90.9469 124.329 92.0643C122.851 96.7783 124.636 102.358 128.373 105.589L124.929 105.532C124.929 105.532 116.542 95.4193 124.718 87.1075Z" fill="#455A64"/>
<path d="M103.918 79.0894C102.18 74.8853 102.088 67.5719 104.746 63.7271C107.405 59.8823 112.38 57.3437 116.95 56.3614C117.713 56.1975 118.536 56.0871 119.256 56.3902C119.976 56.694 120.513 57.5531 120.204 58.2711C121.122 57.6977 122.063 57.1149 123.118 56.8726C124.173 56.6304 125.383 56.787 126.159 57.5418C126.935 58.2965 127.057 59.7224 126.234 60.4263C127.509 59.9613 129.045 60.3226 129.978 61.3076C130.912 62.2925 131.19 63.8449 130.657 65.0928C130.146 66.2878 129.061 67.6227 128.103 68.5006C127.145 69.3785 126.987 70.2898 127.145 71.5799" fill="#263238"/>
<path d="M105.015 71.3778L103.805 97.1222C103.599 101.5 107.099 105.16 111.482 105.149C115.572 105.139 118.934 101.916 119.122 97.8301C119.211 95.8924 119.289 94.2764 119.311 94.0777C119.311 94.0777 125.894 93.7692 126.672 87.3049C127.048 84.1807 127.298 77.6836 127.457 71.8027C127.628 65.4869 122.911 60.1018 116.63 59.4247L116.006 59.3571C109.229 59.0245 105.16 64.5943 105.015 71.3778Z" fill="#FFBE9D"/>
<path d="M119.332 93.9854C119.332 93.9854 115.205 93.877 111.152 90.6766C111.152 90.6766 112.443 94.7268 118.965 94.8405L119.332 93.9854Z" fill="#EB996E"/>
<path d="M125.103 75.9352C125.068 76.425 124.624 76.799 124.112 76.7716C123.6 76.7442 123.213 76.3253 123.248 75.8355C123.284 75.3457 123.728 74.971 124.239 74.9984C124.752 75.0252 125.139 75.4447 125.103 75.9352Z" fill="#263238"/>
<path d="M125.724 74.8298C125.596 74.9376 124.952 74.344 123.957 74.2397C122.964 74.1206 122.179 74.5541 122.085 74.4203C122.037 74.3608 122.178 74.1553 122.52 73.9586C122.858 73.7619 123.416 73.5953 124.035 73.6649C124.654 73.7351 125.151 74.0195 125.425 74.2852C125.706 74.5528 125.786 74.7816 125.724 74.8298Z" fill="#263238"/>
<path d="M115.312 75.2206C115.276 75.7104 114.832 76.0844 114.32 76.057C113.809 76.0295 113.422 75.6107 113.457 75.1209C113.492 74.6311 113.937 74.2564 114.448 74.2838C114.96 74.3112 115.347 74.7308 115.312 75.2206Z" fill="#263238"/>
<path d="M115.926 73.9606C115.798 74.069 115.153 73.4748 114.159 73.3705C113.167 73.2514 112.381 73.6843 112.287 73.5511C112.24 73.4916 112.378 73.2868 112.723 73.0894C113.061 72.8927 113.618 72.7261 114.238 72.795C114.857 72.8653 115.354 73.1496 115.628 73.4153C115.907 73.6836 115.988 73.9124 115.926 73.9606Z" fill="#263238"/>
<path d="M118.741 81.7271C118.742 81.6702 119.372 81.6301 120.388 81.61C120.645 81.6113 120.89 81.5866 120.952 81.4179C121.031 81.2406 120.954 80.9556 120.863 80.6465C120.691 80.0061 120.51 79.335 120.321 78.6311C119.575 75.7646 119.064 73.4193 119.179 73.3899C119.295 73.3611 119.994 75.6608 120.74 78.5267C120.918 79.2326 121.088 79.9057 121.25 80.5501C121.314 80.8492 121.444 81.1945 121.274 81.5611C121.185 81.7438 120.983 81.8609 120.816 81.8877C120.648 81.9198 120.505 81.9071 120.378 81.9011C119.365 81.8469 118.738 81.784 118.741 81.7271Z" fill="#263238"/>
<path d="M115.739 82.0991C115.902 82.1072 115.787 83.1871 116.629 84.053C117.469 84.9215 118.633 84.9241 118.625 85.076C118.633 85.1456 118.346 85.258 117.859 85.2192C117.381 85.1844 116.701 84.9563 116.186 84.4263C115.673 83.8957 115.498 83.242 115.509 82.795C115.516 82.3393 115.666 82.0851 115.739 82.0991Z" fill="#263238"/>
<path d="M116.604 70.0898C116.477 70.3494 115.497 70.1145 114.315 70.1293C113.132 70.1206 112.154 70.3608 112.026 70.1012C111.969 69.9774 112.161 69.7412 112.57 69.5204C112.975 69.2995 113.603 69.1162 114.313 69.1135C115.021 69.1129 115.651 69.2929 116.058 69.5117C116.467 69.7305 116.659 69.9667 116.604 70.0898Z" fill="#263238"/>
<path d="M125.668 71.9111C125.469 72.1186 124.809 71.8101 123.986 71.7097C123.167 71.5813 122.448 71.6977 122.313 71.4441C122.255 71.3216 122.389 71.1075 122.717 70.9262C123.04 70.7455 123.561 70.6258 124.126 70.7034C124.69 70.7823 125.159 71.0399 125.421 71.3022C125.687 71.5665 125.758 71.8094 125.668 71.9111Z" fill="#263238"/>
<path d="M105.026 76.2276C104.921 76.168 100.72 74.4323 100.384 78.8733C100.048 83.3136 104.576 82.7348 104.593 82.6083C104.611 82.4812 105.026 76.2276 105.026 76.2276Z" fill="#FFBE9D"/>
<path d="M103.365 80.8231C103.346 80.8077 103.283 80.8713 103.148 80.9215C103.016 80.9703 102.794 80.9937 102.568 80.8893C102.112 80.6819 101.773 79.9071 101.812 79.1048C101.832 78.7 101.945 78.3213 102.113 78.0135C102.273 77.699 102.5 77.4875 102.74 77.4634C102.979 77.4266 103.135 77.5812 103.18 77.7097C103.23 77.8382 103.195 77.9245 103.218 77.9345C103.229 77.9466 103.319 77.8676 103.297 77.6809C103.286 77.5912 103.242 77.4829 103.143 77.3892C103.043 77.2942 102.89 77.2386 102.724 77.244C102.38 77.242 102.047 77.5337 101.863 77.8716C101.66 78.2095 101.523 78.6344 101.501 79.0887C101.462 79.9854 101.856 80.8579 102.485 81.0914C102.791 81.1965 103.059 81.1222 103.201 81.0272C103.349 80.9302 103.379 80.8325 103.365 80.8231Z" fill="#EB996E"/>
<path d="M130.93 63.6395C131.009 69.436 123.735 71.2969 120.869 67.8402C119.544 66.2417 118.431 64.2852 116.523 63.4648C115.239 62.9128 113.732 63.0406 112.443 63.5812C112.43 63.5866 112.418 63.592 112.404 63.5973C110.503 64.4083 109.26 66.4444 108.82 68.4638C108.208 71.2801 108.471 73.8255 107.532 76.3822C107.398 76.7495 107.241 77.1436 106.907 77.3477C106.341 77.6936 105.591 77.2949 105.186 76.7683C104.537 75.9252 104.371 74.8144 104.297 73.7532C104.127 71.3363 104.332 68.8726 105.114 66.5796C105.895 64.2865 107.273 62.1681 109.194 60.6913C111.595 58.8459 114.761 58.0958 117.766 58.4672C120.771 58.8379 123.599 60.2865 125.806 62.3594C126.83 63.321 127.747 64.4491 128.186 65.7833" fill="#263238"/>
<path d="M126.471 60.1132C126.471 60.1005 126.696 60.0771 127.083 60.1861C127.467 60.2925 128.005 60.5736 128.487 61.1149C128.963 61.6522 129.377 62.4638 129.418 63.4354C129.46 64.4069 129.058 65.4575 128.346 66.2959C127.63 67.1369 126.701 67.7003 125.8 67.9861C124.898 68.2811 124.042 68.3467 123.337 68.3387C122.629 68.324 122.063 68.239 121.678 68.1607C121.292 68.0824 121.086 68.0135 121.09 67.9928C121.099 67.9305 121.953 68.1212 123.335 68.0971C124.022 68.0751 124.845 67.9854 125.698 67.6876C126.549 67.4006 127.414 66.8626 128.084 66.0751C128.748 65.2915 129.124 64.326 129.103 63.4441C129.083 62.5588 128.724 61.792 128.303 61.2708C127.875 60.7462 127.392 60.4504 127.039 60.3113C126.684 60.1701 126.466 60.1473 126.471 60.1132Z" fill="#455A64"/>
<path d="M123.655 57.8529C123.655 57.8355 123.821 57.8161 124.072 57.96C124.315 58.1025 124.613 58.4431 124.692 58.961C124.77 59.4809 124.567 60.0878 124.223 60.6351C123.879 61.1825 123.436 61.7452 122.878 62.241C121.768 63.2467 120.49 63.794 119.548 64.0108C118.601 64.243 117.992 64.1868 117.993 64.1547C117.988 64.0931 118.583 64.0623 119.484 63.778C120.383 63.509 121.586 62.9496 122.648 61.9874C123.183 61.5137 123.614 60.9804 123.957 60.4678C124.296 59.958 124.49 59.4314 124.452 58.9891C124.415 58.5461 124.187 58.2256 123.996 58.0697C123.798 57.9098 123.648 57.881 123.655 57.8529Z" fill="#455A64"/>
<path d="M104.836 121.078L106.922 105.862L77.0145 111.866L49.8021 102.432L42.4518 109.985L71.4106 124.9C73.9927 126.133 76.9027 126.505 79.7117 125.959L104.836 121.078Z" fill="#FFBE9D"/>
<path d="M49.8016 102.432C49.8016 102.432 39.3955 97.4541 38.7297 97.2875C38.2165 97.159 30.357 96.7415 26.7779 96.5561C25.3574 96.4825 25.1466 98.5923 26.5564 98.7836C26.5999 98.7897 26.6448 98.7943 26.6909 98.7984C28.6889 98.965 33.0884 99.9653 33.0884 99.9653L31.0904 104.645C30.8856 105.124 31.0368 105.681 31.4557 105.991L37.5106 110.468C39.1258 111.2 41.0087 111.017 42.4514 109.986L45.1205 110.533L49.8016 102.432Z" fill="#FFBE9D"/>
<path d="M31.0598 104.918C31.2512 105.795 33.3382 107.584 34.9213 107.579C35.2679 107.578 35.6259 107.477 35.8761 107.238C36.1264 106.998 36.2421 106.604 36.0983 106.29C36.0039 106.084 35.8186 105.936 35.6399 105.797C34.4583 104.88 33.2773 103.962 32.0956 103.044" fill="#FFBE9D"/>
<path d="M32.0957 103.045C32.1252 103.006 32.6886 103.389 33.5758 104.038C34.0482 104.39 34.5661 104.777 35.1228 105.192C35.4139 105.423 35.711 105.617 36.0355 105.912C36.1934 106.061 36.3339 106.305 36.3339 106.559C36.342 106.81 36.253 107.051 36.1024 107.247C35.7812 107.643 35.2848 107.764 34.8652 107.746C34.4383 107.734 34.0489 107.618 33.7043 107.471C33.0131 107.174 32.4664 106.777 32.0522 106.401C31.6374 106.024 31.353 105.664 31.2018 105.385C31.0472 105.105 31.0412 104.918 31.0606 104.917C31.0894 104.911 31.1376 105.072 31.3169 105.312C31.4935 105.553 31.794 105.874 32.2128 106.214C32.6304 106.551 33.173 106.912 33.8247 107.173C34.1493 107.303 34.5072 107.399 34.8726 107.405C35.2286 107.419 35.6146 107.303 35.8281 107.033C36.0442 106.751 36.0482 106.379 35.7926 106.151C35.5357 105.91 35.1998 105.672 34.9268 105.446C34.3861 105.009 33.8836 104.603 33.4253 104.233C32.5768 103.534 32.0663 103.083 32.0957 103.045Z" fill="#EB996E"/>
<path d="M39.4667 107.619C39.4359 107.647 39.2331 107.501 39.0143 107.166C38.7955 106.836 38.5881 106.304 38.5587 105.691C38.5312 105.077 38.6891 104.529 38.8772 104.179C39.0645 103.827 39.2525 103.662 39.286 103.687C39.3743 103.739 38.841 104.547 38.9066 105.675C38.9447 106.803 39.5496 107.56 39.4667 107.619Z" fill="#EB996E"/>
<path d="M35.3054 105.217C35.6213 105.708 36.275 105.952 36.8351 105.788C37.3951 105.624 37.8146 105.066 37.816 104.483C37.818 103.719 37.2071 103.112 36.6403 102.601C35.7718 101.818 34.9033 101.033 34.0348 100.25" fill="#FFBE9D"/>
<path d="M34.0358 100.25C34.0679 100.215 34.4828 100.531 35.1278 101.07C35.4818 101.374 35.8551 101.694 36.2486 102.031C36.6574 102.403 37.1506 102.774 37.5621 103.317C37.7621 103.589 37.9227 103.903 37.9682 104.24C38.0238 104.574 37.9461 104.919 37.7956 105.185C37.4965 105.732 36.913 106 36.4547 105.961C35.9923 105.935 35.6698 105.717 35.5012 105.542C35.3279 105.362 35.2897 105.226 35.3065 105.217C35.3306 105.201 35.4075 105.309 35.5902 105.439C35.7675 105.569 36.0713 105.723 36.458 105.715C36.8381 105.717 37.2824 105.481 37.5126 105.033C37.7595 104.592 37.6537 104.001 37.281 103.524C36.9184 103.04 36.4326 102.655 36.0331 102.27C35.6578 101.913 35.3011 101.575 34.9625 101.253C34.3603 100.667 34.0037 100.286 34.0358 100.25Z" fill="#EB996E"/>
<path d="M39.7635 99.8556C37.6678 100.353 35.6537 101.196 33.8277 102.339C33.7187 102.407 33.6022 102.487 33.5674 102.61C33.5186 102.784 33.6517 102.954 33.7923 103.067C34.3296 103.496 35.0703 103.569 35.7555 103.512C36.4406 103.455 37.1178 103.286 37.8056 103.302C38.9953 103.328 40.0967 103.897 41.2436 104.214C42.3911 104.529 43.7889 104.522 44.5765 103.629" fill="#FFBE9D"/>
<path d="M44.5765 103.629C44.5852 103.637 44.5484 103.691 44.4681 103.789C44.3831 103.883 44.2459 104.014 44.0358 104.139C43.6237 104.398 42.9064 104.582 42.0445 104.494C41.1713 104.428 40.2219 104.011 39.1727 103.704C38.6461 103.552 38.0854 103.443 37.5026 103.478C36.9157 103.506 36.3035 103.652 35.6391 103.695C34.9833 103.732 34.2761 103.647 33.7347 103.237C33.6016 103.137 33.4571 103.009 33.4002 102.79C33.3727 102.681 33.3935 102.547 33.4557 102.452C33.5159 102.355 33.5922 102.297 33.6605 102.25C33.9214 102.084 34.1616 101.945 34.4085 101.804C35.3881 101.252 36.3189 100.847 37.1151 100.553C37.9121 100.26 38.5752 100.08 39.0362 99.9733C39.4979 99.8669 39.7588 99.8348 39.7635 99.8556C39.7789 99.9138 38.7578 100.149 37.2041 100.783C36.4293 101.102 35.5233 101.524 34.5678 102.082C34.3323 102.221 34.0807 102.373 33.8498 102.523C33.7408 102.602 33.7127 102.652 33.7294 102.715C33.7461 102.789 33.8298 102.889 33.9395 102.964C34.3824 103.297 35.0041 103.382 35.619 103.347C36.2406 103.308 36.8589 103.164 37.4865 103.136C38.1195 103.104 38.7244 103.231 39.2637 103.395C40.3436 103.733 41.251 104.159 42.0726 104.249C42.8903 104.363 43.5641 104.226 43.9709 104.019C44.3851 103.818 44.5511 103.603 44.5765 103.629Z" fill="#EB996E"/>
<path d="M77.4802 117.13C77.3925 117.153 77.0372 115.966 76.9964 114.45C76.9482 112.933 77.2339 111.728 77.3229 111.746C77.424 111.761 77.2975 112.962 77.345 114.44C77.3838 115.917 77.5799 117.109 77.4802 117.13Z" fill="#EB996E"/>
<path d="M103.648 98.801L95.1607 108.365C95.1607 108.365 90.628 141.389 90.3042 143.979C89.9803 146.569 89.1198 154.865 89.1198 157.132C89.1198 159.398 87.2383 175.614 87.2383 175.614C87.2383 175.614 123.248 183.091 129.272 175.614L127.398 161.73L129.029 127.286C129.029 127.286 131.73 103.379 119.122 97.8301C119.122 97.8301 111.152 102.635 103.648 98.801Z" fill="#173E95"/>
<path d="M124.904 101.221C124.904 101.221 122.419 98.7676 114.489 100.822C106.132 102.987 101.722 110.81 103.796 132.957C105.505 151.219 112.728 153.847 112.728 153.847C112.728 153.847 108.772 126.3 109.452 114.776C110.31 100.221 124.903 103.845 124.903 103.845C126.982 103.172 124.904 101.221 124.904 101.221Z" fill="#263238"/>
<path d="M103.648 98.801L96.3115 100.822L79.8097 110.924L84.5089 125.846L94.1991 124.785L103.648 98.801Z" fill="#173E95"/>
<path d="M94.1017 109.161C94.1974 109.17 93.7798 114.505 93.1696 121.075C92.5587 127.647 91.9859 132.966 91.8902 132.957C91.7946 132.948 92.2121 127.615 92.823 121.043C93.4332 114.472 94.006 109.152 94.1017 109.161Z" fill="#263238"/>
<path d="M127.691 155.535C127.691 155.535 125.347 163.064 117.067 150.633C108.787 138.202 109.952 143.761 109.952 143.761L108.255 145.78C108.255 145.78 117.362 166.293 127.58 163.078L127.691 155.535Z" fill="#263238"/>
<path opacity="0.3" d="M93.7675 112.75L87.2375 125.547L92.6333 124.956L93.7675 112.75Z" fill="black"/>
<g opacity="0.3">
<path d="M90.7728 146.73C95.5584 151.947 101.257 156.323 107.532 159.601C110.166 160.976 113.073 162.187 116.02 161.81C119.257 161.396 122.032 159.049 123.561 156.166C125.091 153.283 124.871 151.892 125.236 148.65C125.637 145.077 125.639 140.309 125.827 137.051C125.86 136.474 125.871 135.805 125.871 135.171C125.87 133.756 126.795 132.51 128.151 132.102C128.151 132.102 126.177 131.174 124.854 131.362C123.531 131.55 122.529 132.652 121.837 133.794C118.166 139.848 119.764 148.725 112.758 152.495C110.472 153.724 107.806 154.015 105.245 153.597C99.5115 152.661 95.1214 148.891 90.8933 145.218" fill="black"/>
</g>
<path d="M98.6949 134.2C100.449 134.2 101.871 129.921 101.871 124.643C101.871 119.365 100.449 115.086 98.6949 115.086C96.9411 115.086 95.5193 119.365 95.5193 124.643C95.5193 129.921 96.9411 134.2 98.6949 134.2Z" fill="#FAFAFA"/>
<path d="M100.394 290.829L101.122 306.56C101.122 306.56 85.3772 312.584 85.2286 315.504L115.781 315.187L115.651 290.63L100.394 290.829Z" fill="#173E95"/>
<g opacity="0.6">
<path d="M110.555 305.138C111.148 305.293 111.564 305.954 111.432 306.553C111.301 307.152 110.634 307.58 110.037 307.435C109.442 307.29 108.919 306.512 109.116 305.932C109.313 305.352 110.125 304.892 110.668 305.176" fill="white"/>
</g>
<path opacity="0.6" d="M115.781 315.188L115.768 312.739L86.4192 313.942C86.4192 313.942 85.0649 314.547 85.2289 315.504L115.781 315.188Z" fill="white"/>
<path d="M100.625 306.41C100.632 306.559 101.378 306.619 102.117 307.091C102.869 307.544 103.253 308.187 103.391 308.126C103.528 308.095 103.296 307.206 102.392 306.65C101.492 306.086 100.592 306.274 100.625 306.41Z" fill="#263238"/>
<path d="M97.4349 307.768C97.4021 307.914 98.0512 308.161 98.5644 308.786C99.0963 309.396 99.2308 310.078 99.3794 310.07C99.5199 310.092 99.6142 309.216 98.9612 308.451C98.3148 307.679 97.4362 307.627 97.4349 307.768Z" fill="#263238"/>
<path d="M95.6541 311.623C95.7899 311.653 95.99 310.905 95.5986 310.092C95.2125 309.276 94.5059 308.961 94.4443 309.086C94.3614 309.21 94.819 309.643 95.1302 310.316C95.4567 310.981 95.5056 311.61 95.6541 311.623Z" fill="#263238"/>
<path d="M100.857 302.806C100.921 302.941 101.603 302.729 102.447 302.777C103.292 302.809 103.951 303.085 104.027 302.956C104.112 302.847 103.466 302.302 102.472 302.258C101.477 302.208 100.782 302.69 100.857 302.806Z" fill="#263238"/>
<path opacity="0.3" d="M100.542 293.945L100.668 296.748L115.683 296.456L115.675 293.928L100.542 293.945Z" fill="black"/>
<path d="M100.768 299.63C100.768 299.691 101.358 299.778 102.299 299.606C102.767 299.52 103.318 299.362 103.895 299.098C104.183 298.966 104.477 298.808 104.768 298.622C104.908 298.531 105.074 298.438 105.227 298.258C105.391 298.1 105.48 297.704 105.287 297.463C105.128 297.23 104.85 297.131 104.63 297.129C104.404 297.124 104.222 297.171 104.057 297.214C103.718 297.3 103.4 297.416 103.109 297.55C102.528 297.822 102.057 298.163 101.708 298.491C101.006 299.155 100.77 299.715 100.821 299.743C100.89 299.791 101.229 299.321 101.945 298.771C102.302 298.498 102.759 298.215 103.302 297.989C103.575 297.877 103.868 297.78 104.178 297.708C104.501 297.62 104.776 297.615 104.861 297.758C104.892 297.813 104.896 297.834 104.829 297.93C104.76 298.018 104.629 298.105 104.491 298.196C104.223 298.375 103.953 298.531 103.688 298.666C103.158 298.937 102.65 299.122 102.214 299.249C101.341 299.502 100.765 299.55 100.768 299.63Z" fill="#263238"/>
<path d="M100.965 299.842C101.018 299.864 101.308 299.327 101.353 298.36C101.374 297.881 101.318 297.3 101.127 296.687C101.03 296.381 100.899 296.069 100.728 295.762C100.546 295.463 100.323 295.06 99.7434 295C99.4409 294.992 99.192 295.23 99.1084 295.434C99.0093 295.641 98.9913 295.819 98.9572 295.997C98.905 296.354 98.915 296.704 98.9665 297.027C99.0696 297.676 99.3412 298.215 99.6363 298.601C100.242 299.386 100.866 299.558 100.878 299.507C100.927 299.432 100.404 299.149 99.9394 298.393C99.7106 298.021 99.5052 297.528 99.4403 296.961C99.4075 296.678 99.4088 296.378 99.459 296.076C99.5032 295.751 99.6223 295.488 99.7447 295.519C99.8966 295.515 100.158 295.758 100.285 296.015C100.445 296.288 100.573 296.567 100.673 296.841C100.87 297.391 100.959 297.919 100.985 298.365C101.037 299.26 100.884 299.82 100.965 299.842Z" fill="#263238"/>
<path d="M129.996 281.277L142.35 291.043C142.35 291.043 136.572 306.88 138.679 308.907L158.475 285.635L139.851 269.627L129.996 281.277Z" fill="#173E95"/>
<g opacity="0.6">
<path d="M147.463 282.99C147.97 282.644 148.741 282.763 149.107 283.255C149.473 283.747 149.358 284.532 148.858 284.886C148.358 285.241 147.427 285.126 147.119 284.596C146.81 284.067 146.995 283.151 147.566 282.928" fill="white"/>
</g>
<path opacity="0.6" d="M158.476 285.635L156.618 284.039L138.28 306.984C138.28 306.984 137.849 308.403 138.679 308.907L158.476 285.635Z" fill="white"/>
<path d="M141.911 291.32C142.028 291.413 142.562 290.888 143.403 290.64C144.238 290.37 144.975 290.5 145.019 290.358C145.086 290.234 144.263 289.826 143.25 290.144C142.234 290.454 141.785 291.256 141.911 291.32Z" fill="#263238"/>
<path d="M140.843 294.619C140.931 294.739 141.543 294.411 142.352 294.434C143.162 294.433 143.764 294.778 143.855 294.66C143.964 294.569 143.366 293.924 142.359 293.915C141.354 293.897 140.737 294.525 140.843 294.619Z" fill="#263238"/>
<path d="M142.586 298.491C142.699 298.408 142.265 297.767 141.394 297.529C140.525 297.285 139.824 297.612 139.878 297.741C139.916 297.885 140.544 297.824 141.256 298.03C141.972 298.219 142.479 298.595 142.586 298.491Z" fill="#263238"/>
<path d="M139.342 288.782C139.486 288.822 139.773 288.168 140.363 287.562C140.94 286.945 141.581 286.629 141.535 286.486C141.508 286.351 140.673 286.481 139.988 287.204C139.297 287.921 139.205 288.762 139.342 288.782Z" fill="#263238"/>
<path opacity="0.3" d="M132.445 283.208L134.644 284.952L144.27 273.425L142.357 271.773L132.445 283.208Z" fill="black"/>
<path d="M136.886 286.765C136.932 286.807 137.385 286.417 137.872 285.594C138.114 285.185 138.355 284.664 138.534 284.056C138.623 283.752 138.698 283.426 138.748 283.085C138.77 282.919 138.809 282.733 138.774 282.5C138.762 282.273 138.522 281.945 138.214 281.934C137.933 281.901 137.677 282.046 137.531 282.211C137.379 282.377 137.296 282.546 137.219 282.699C137.062 283.012 136.941 283.328 136.851 283.635C136.675 284.252 136.624 284.831 136.643 285.31C136.683 286.276 136.951 286.821 137.006 286.801C137.088 286.781 136.955 286.216 137.009 285.315C137.037 284.867 137.122 284.336 137.308 283.778C137.402 283.499 137.521 283.214 137.67 282.933C137.816 282.632 137.992 282.421 138.156 282.451C138.217 282.464 138.236 282.474 138.264 282.587C138.285 282.697 138.265 282.852 138.244 283.016C138.203 283.336 138.144 283.643 138.072 283.932C137.928 284.509 137.735 285.014 137.545 285.426C137.165 286.249 136.823 286.715 136.886 286.765Z" fill="#263238"/>
<path d="M137.175 286.756C137.226 286.731 137.011 286.159 136.31 285.491C135.962 285.161 135.487 284.823 134.899 284.565C134.605 284.437 134.283 284.331 133.939 284.26C133.593 284.2 133.143 284.105 132.718 284.502C132.514 284.725 132.531 285.07 132.629 285.266C132.721 285.477 132.843 285.607 132.955 285.749C133.19 286.023 133.461 286.245 133.739 286.417C134.296 286.765 134.881 286.913 135.366 286.944C136.356 287.002 136.895 286.644 136.865 286.601C136.84 286.515 136.283 286.725 135.408 286.579C134.977 286.508 134.47 286.34 134 286.017C133.765 285.856 133.539 285.659 133.345 285.422C133.129 285.176 133.007 284.913 133.112 284.842C133.208 284.725 133.562 284.687 133.84 284.759C134.151 284.818 134.445 284.904 134.718 285.008C135.262 285.22 135.719 285.499 136.073 285.772C136.783 286.32 137.105 286.803 137.175 286.756Z" fill="#263238"/>
<path d="M95.743 224.274C95.743 224.274 96.56 186.702 95.743 186.702C94.926 186.702 89.1341 183.394 89.1341 183.394L81.8962 239.234C81.8962 239.234 81.2438 245.502 89.0009 249.92C96.758 254.338 131.443 285.178 131.443 285.178L143.18 270.883C143.18 270.883 120.357 247.095 111.033 239.234C103.739 233.084 95.743 224.274 95.743 224.274Z" fill="#263238"/>
<path d="M117.006 215.52L117.796 209.571C117.796 209.571 123.513 197.547 124.33 192.397C125.147 187.246 124.607 176.169 124.607 176.169H88.5092C88.5092 176.169 88.6644 216.922 93.0204 228.357C93.0204 228.357 95.2318 250.239 95.557 252.073C96.2469 255.964 98.6523 295.804 98.6523 295.804L116.854 295.14C116.854 295.14 118.435 258.514 117.172 248.116C116.546 242.967 116.25 237.481 116.114 232.941C115.94 227.118 116.238 221.296 117.006 215.52Z" fill="#263238"/>
<path d="M89.4957 188.054C89.5018 188.054 89.5098 188.115 89.5192 188.233C89.5279 188.373 89.5392 188.546 89.5526 188.761C89.576 189.251 89.6075 189.928 89.6483 190.788C89.7166 192.548 89.8464 195.095 90.0277 198.239C90.3904 204.529 91.0642 213.206 92.0578 222.767C93.0494 232.332 94.1153 240.973 94.8862 247.226C95.2662 250.334 95.5754 252.857 95.7928 254.634C95.8912 255.488 95.9688 256.162 96.0243 256.65C96.0451 256.864 96.0625 257.036 96.0759 257.175C96.0852 257.293 96.0879 257.355 96.0819 257.356C96.0759 257.356 96.0618 257.297 96.0411 257.18C96.0183 257.042 95.9902 256.871 95.9554 256.658C95.8838 256.173 95.7848 255.502 95.659 254.651C95.4154 252.878 95.0688 250.359 94.6426 247.257C93.8096 241.01 92.7042 232.372 91.7119 222.802C90.7169 213.236 90.0819 204.548 89.7821 198.251C89.6322 195.103 89.5399 192.553 89.5131 190.791C89.5004 189.93 89.4904 189.252 89.483 188.761C89.483 188.546 89.4837 188.373 89.4837 188.233C89.4857 188.116 89.4897 188.055 89.4957 188.054Z" fill="#455A64"/>
<path d="M116.078 236.291C116.09 236.29 116.126 236.492 116.184 236.881C116.242 237.3 116.32 237.868 116.419 238.583C116.601 240.064 116.828 242.212 117.034 244.872C117.464 250.191 117.788 257.556 117.909 265.695C118.005 273.837 117.877 281.21 117.587 286.539C117.45 289.203 117.28 291.356 117.136 292.841C117.056 293.559 116.993 294.128 116.945 294.549C116.898 294.939 116.867 295.142 116.855 295.141C116.843 295.139 116.85 294.933 116.875 294.541C116.906 294.12 116.948 293.549 117.001 292.83C117.102 291.343 117.235 289.19 117.34 286.527C117.566 281.202 117.656 273.836 117.56 265.7C117.439 257.568 117.154 250.207 116.788 244.89C116.613 242.231 116.424 240.082 116.283 238.598C116.212 237.88 116.155 237.311 116.113 236.89C116.079 236.499 116.066 236.293 116.078 236.291Z" fill="#455A64"/>
<path d="M123.179 100.381C123.179 100.381 129.087 101.957 130.344 110.761C131.602 119.564 129.272 122.08 129.272 122.08C129.272 122.08 130.231 105.69 122.89 103.453L123.179 100.701" fill="#263238"/>
<path d="M82.9248 129.138L52.423 128.547L52.7789 130.026L82.7769 130.467L82.9248 129.138Z" fill="#263238"/>
<path d="M119.903 103.145C118.768 102.843 117.565 102.99 116.481 103.446C114.009 104.487 109.487 107.477 109.165 115.917C108.645 129.55 108.645 129.55 108.645 129.55L128.151 132.102C128.151 132.102 129.807 105.779 119.903 103.145Z" fill="#173E95"/>
<path d="M84.0117 132.027L108.74 139.465L109.11 129.508L123.918 131.665L123.092 147.855C122.919 152.604 119.589 156.651 114.963 157.736C112.374 158.343 109.653 157.951 107.343 156.637L81.0623 141.695L84.0117 132.027Z" fill="#FFBE9D"/>
<path d="M128.151 132.102C128.147 132.098 128.141 132.019 128.133 131.87C128.126 131.702 128.117 131.485 128.105 131.212C128.085 130.618 128.055 129.781 128.017 128.714C127.947 126.539 127.848 123.432 127.727 119.601C127.671 117.684 127.61 115.586 127.545 113.335C127.53 112.772 127.514 112.199 127.498 111.618C127.468 111.332 127.438 111.045 127.408 110.755C127.348 110.469 127.304 110.177 127.23 109.89C126.934 108.743 126.386 107.626 125.618 106.64C124.079 104.692 121.602 103.208 118.869 103.159C117.51 103.124 116.147 103.54 114.954 104.277C113.755 105.01 112.742 106.062 111.931 107.259C110.75 108.984 110.087 110.972 109.701 112.943C109.316 114.922 109.192 116.899 109.096 118.816C108.987 122.658 108.885 126.267 108.791 129.554L108.663 129.405C114.498 130.201 119.348 130.863 122.763 131.329C124.455 131.566 125.791 131.754 126.728 131.886C127.172 131.951 127.521 132.001 127.78 132.039C128.02 132.075 128.146 132.097 128.151 132.102C128.156 132.108 128.04 132.098 127.81 132.073C127.557 132.044 127.217 132.005 126.783 131.955C125.852 131.841 124.526 131.681 122.845 131.477C119.401 131.045 114.51 130.433 108.625 129.696L108.494 129.679L108.497 129.546C108.578 126.258 108.637 122.648 108.762 118.799C108.853 116.877 108.974 114.885 109.362 112.875C109.75 110.875 110.427 108.836 111.642 107.062C112.476 105.831 113.522 104.743 114.771 103.981C116.01 103.215 117.451 102.777 118.873 102.816C121.733 102.876 124.281 104.42 125.869 106.44C126.662 107.465 127.225 108.624 127.526 109.814C127.601 110.111 127.646 110.413 127.706 110.709C127.735 111.01 127.765 111.31 127.794 111.606C127.807 112.194 127.82 112.773 127.832 113.342C127.879 115.616 127.921 117.736 127.961 119.673C128.027 123.51 128.081 126.622 128.119 128.801C128.134 129.852 128.146 130.677 128.154 131.262C128.155 131.525 128.156 131.734 128.157 131.895C128.158 132.037 128.155 132.107 128.151 132.102Z" fill="#263238"/>
<path d="M84.5086 132.316L78.5681 127.923C77.4848 127.122 75.7953 127.285 74.4537 127.164C71.7926 126.924 67.4039 128.534 67.2366 128.81L69.0299 130.244L57.4835 129.889C57.4835 129.889 58.4765 132.3 61.705 132.548C61.705 132.548 62.0777 135.155 65.4293 135.652C65.4293 135.652 66.2985 137.763 68.1607 138.383C68.1607 138.383 68.5334 140.742 71.513 140.618L81.6254 141.765L84.5086 132.316Z" fill="#FFBE9D"/>
<path d="M68.9304 132.978C68.925 133.075 67.2877 133.056 65.2736 132.937C63.2596 132.819 61.6316 132.645 61.637 132.549C61.6423 132.453 63.2797 132.471 65.2937 132.59C67.3078 132.708 68.9357 132.882 68.9304 132.978Z" fill="#EB996E"/>
<path d="M71.8488 135.757C71.8488 135.853 70.4176 135.93 68.6518 135.93C66.886 135.93 65.4547 135.852 65.4547 135.757C65.4547 135.66 66.886 135.583 68.6518 135.583C70.4169 135.582 71.8488 135.66 71.8488 135.757Z" fill="#EB996E"/>
<path d="M74.9897 138.383C74.9897 138.48 73.5584 138.557 71.7926 138.557C70.0268 138.557 68.5956 138.479 68.5956 138.383C68.5956 138.288 70.0268 138.209 71.7926 138.209C73.5584 138.209 74.9897 138.287 74.9897 138.383Z" fill="#EB996E"/>
<path d="M110.372 144.514C110.285 144.551 109.754 143.479 109.272 142.088C108.788 140.698 108.54 139.528 108.631 139.503C108.725 139.476 109.121 140.595 109.601 141.974C110.08 143.354 110.463 144.476 110.372 144.514Z" fill="#EB996E"/>
<path d="M112.164 143.554C112.084 143.613 111.285 142.646 110.297 141.462C109.31 140.276 108.505 139.316 108.576 139.248C108.644 139.183 109.57 140.043 110.565 141.239C111.561 142.434 112.24 143.5 112.164 143.554Z" fill="#EB996E"/>
</svg>
